<svg width="720" height="600" version="1.1" xmlns="http://www.w3.org/2000/svg" xmlns:xlink="http://www.w3.org/1999/xlink">
 <path d="m224 433.5c-6.543 11.24-1.889 22.12 1.406 32.47-5.533-13.08-7.526-11.1-12.88-20.72-2.482 12.51 4.169 23.01 7.844 34.16-6.158-14.01-12.6-9.347-19.31-19.88l8.969 35.53c-5.318-13.35-10.65-14.46-15.97-18.75 4.668 9.723 3.693 16.06 5.031 23.78-3.265-8.619-6.516-15.24-9.781-20.12 0.96 45.6-20.99 35.06-33.31 48.12l58.22-14.28 47.59-3.344 48.12 10.06-12.59-48.97-3.906 20.72-6.719-32.19-3.094 25.19c-1.471-12.88-3.755-22.12-6.719-28.28l-3.906 28c-1.172-18.74-4.801-28.71-8.125-39.19-3.784 7.65-2.122 15.29-1.688 22.94-3.549-9.928-4.931-18.97-4.75-27.41-4.363 7.074-5.105 16.53-5.031 26.56-1.297-6.249-2.101-13.67-10.66-20.69 4.569 11.73-3.879 15.85 1.406 26.03 0 0-7.338-3.084-6.156-5.594 1.799-3.82 1.116-15.11-0.5625-17.38-4.192 4.945-3.77 7.93-5.312 12.88 1.073-15.69-5.538-18.59-8.125-29.66zm271.9 0c-2.587 11.07-9.198 13.97-8.125 29.66-1.543-4.945-1.121-7.93-5.312-12.88-1.678 2.27-2.361 13.55-0.5625 17.38 1.182 2.51-6.156 5.594-6.156 5.594 5.285-10.18-3.163-14.3 1.406-26.03-8.556 7.014-9.359 14.44-10.66 20.69 0.0733-10.03-0.6685-19.49-5.031-26.56 0.1808 8.436-1.201 17.48-4.75 27.41 0.4346-7.65 2.096-15.29-1.688-22.94-3.324 10.48-6.953 20.45-8.125 39.19l-3.906-28c-2.964 6.163-5.248 15.4-6.719 28.28l-3.094-25.19-6.719 32.19-3.906-20.72-12.59 48.97 48.12-10.06 47.59 3.344 58.22 14.28c-12.32-13.07-34.27-2.525-33.31-48.12-3.265 4.887-6.516 11.51-9.781 20.12 1.338-7.726 0.3636-14.06 5.031-23.78-5.318 4.29-10.65 5.395-15.97 18.75l8.969-35.53c-6.717 10.53-13.15 5.87-19.31 19.88 3.675-11.15 10.33-21.64 7.844-34.16-5.349 9.614-7.342 7.64-12.88 20.72 3.295-10.35 7.95-21.22 1.406-32.47z" fill="#006b3f" stroke="#000" stroke-width="1.2"/>
 <g transform="translate(0,-2)">
  <path d="m482.3 364.7v-128.2h-244.7v128.2c0.8576 46.14 14.31 79.88 36.12 105.3s51.96 42.54 86.21 55.43c34.25-12.89 64.41-30 86.21-55.43 21.8-25.43 35.26-59.17 36.12-105.3z" fill="#0193dd"/>
  <g stroke="#000">
   <g>
    <circle transform="translate(-3.03 -1.414)" cx="414.6" cy="413.1" r="11.61" color="#000000" fill="#fff"/>
    <path transform="translate(-3.03 -1.414)" d="m414.6 404.6c-4.698 0-8.424 3.747-8.424 8.455s3.726 8.455 8.424 8.455 8.455-3.757 8.455-8.455-3.757-8.455-8.455-8.455z" color="#000000" fill="#b3b3b3"/>
   </g>
   <g fill="none" stroke-width="1px">
    <path d="m411.5 402.9v17.37"/>
    <path d="m420.2 411.5h-17.37"/>
    <path d="m417.7 405.4-12.28 12.28"/>
    <path d="m405.4 405.4 12.28 12.28"/>
   </g>
  </g>
  <g stroke="#000">
   <path d="m442.1 474.8c1.741-7.87-45.9-13.44-50.21 0h-63.51c-4.312-13.44-51.95-7.87-50.21 0 21.41 22.9 49.93 38.63 81.97 50.72 32.04-12.09 60.56-27.82 81.97-50.72z" fill="#006b3f"/>
   <path d="m328.1 236.5v95.62h-90.38v32.59c0.2069 11.13 1.136 21.54 2.75 31.28h87.62v115.4c10.12 5.219 20.81 9.845 31.94 14.03 11.13-4.187 21.82-8.813 31.94-14.03v-115.4h87.62c1.614-9.746 2.543-20.15 2.75-31.28v-32.59h-90.38v-95.62h-31.94z" fill="#fcd116" stroke-width="1.5"/>
   <path d="m336.1 236.5v103.6h-98.38v24.59c0.1514 8.147 0.6801 15.88 1.594 23.28h96.78v127.3c7.706 3.646 15.7 6.994 23.94 10.09 8.239-3.1 16.23-6.448 23.94-10.09v-127.3h96.78c0.9136-7.396 1.442-15.13 1.594-23.28v-24.59h-98.38v-103.6h-23.94z" fill="#006b3f" stroke-width="1.5"/>
   <path d="m457.4 314c5.021-5.686 9.216-9.127 16.37-5.603l-3.511-11.29h-66.27l-3.511 11.29c7.154-3.523 11.35-0.0825 16.37 5.603 10.42 2.775 11.88-7.459 20.27-7.459s9.85 10.23 20.27 7.459z" fill="#fcd116"/>
  </g>
  <g transform="translate(-.3426)">
   <g stroke="#000">
    <path d="m466.8 297h-58.67v-25.15h4.482v3.155h1.848v-3.155h4.782v3.155h1.878v-3.155h4.692v3.155h1.49v-17.58h5.353v3.277h2.091v-3.277h5.435v3.277h2.091v-3.277h5.353v17.58h1.49v-3.155h4.692v3.155h1.878v-3.155h4.782v3.155h1.848v-3.155h4.482z" fill="#fff"/>
    <path d="m437.5 282c-2.334 0-4.464 1.034-5.89 2.478-1.426 1.445-2.293 3.208-2.897 4.989-0.6131 1.808-0.6096 3.561-0.6116 5.053-2e-3 1.253 0.0421 2.14 0.0644 2.446h18.67c0.0228-0.2795 0.0736-1.175 0.0644-2.446-0.0109-1.49-0.0348-3.258-0.6438-5.053-0.601-1.772-1.447-3.509-2.865-4.957-1.418-1.448-3.556-2.511-5.89-2.511z" fill="#fff"/>
    <path d="m443.9 297s0.351-4.275-0.4069-6.51c-1.019-3.006-2.82-5.452-5.938-5.452-3.118 0-4.919 2.446-5.938 5.452-0.7579 2.235-0.4069 6.51-0.4069 6.51z" fill="#ce1126"/>
   </g>
   <use transform="matrix(1.03 0 0 1.03 -33.88 -26.51)" width="720" height="600" stroke-width=".9709" xlink:href="#use3759"/>
   <g transform="translate(-.1066 -4)">
    <path id="rect2989" d="m415.3 285.6c0.855-2.11 3.626-2.213 4.577 0v4.149h-4.577z" fill="#ce1126" stroke="#000"/>
    <use id="use3759" transform="translate(40.08)" width="720" height="600" xlink:href="#rect2989"/>
   </g>
  </g>
  <g stroke="#000">
   <path d="m405.6 304.2c-4.498-0.0163-7.487 2.566-9.438 4.562-0.9754 0.9984-1.785 1.861-2.469 2.375s-1.123 0.7188-1.781 0.7188v5c1.904 0 3.555-0.7971 4.781-1.719s2.17-1.961 3.062-2.875c1.785-1.827 3.083-3.072 5.812-3.062 2.785 0.0101 3.609 1.119 5.469 3.031s4.711 4.573 9.406 4.625c4.764 0.0528 7.746-2.508 9.906-4.406s3.556-3.25 7.156-3.25 4.996 1.352 7.156 3.25 5.142 4.459 9.906 4.406c4.695-0.052 7.546-2.713 9.406-4.625s2.684-3.021 5.469-3.031c2.73-0.01 4.027 1.235 5.812 3.062 0.8925 0.9136 1.836 1.953 3.062 2.875 1.066 0.8013 2.467 1.516 4.062 1.688v-5.062c-0.3335-0.1085-0.6531-0.3173-1.062-0.625-0.6839-0.514-1.493-1.377-2.469-2.375-1.951-1.997-4.909-4.579-9.406-4.562-4.505 0.0163-7.237 2.685-9.062 4.562s-2.792 3.06-5.875 3.094c-3.134 0.0347-4.322-1.246-6.531-3.188s-5.386-4.469-10.47-4.469-8.26 2.528-10.47 4.469-3.397 3.222-6.531 3.188c-3.083-0.0342-4.049-1.216-5.875-3.094s-4.526-4.546-9.031-4.562zm0 12c-4.498-0.0163-7.487 2.566-9.438 4.562-0.9754 0.9984-1.785 1.861-2.469 2.375s-1.123 0.7188-1.781 0.7188v5c1.904 0 3.555-0.7971 4.781-1.719s2.17-1.961 3.062-2.875c1.785-1.827 3.083-3.072 5.812-3.062 2.785 0.0101 3.609 1.119 5.469 3.031s4.711 4.573 9.406 4.625c4.764 0.0528 7.746-2.508 9.906-4.406s3.556-3.25 7.156-3.25 4.996 1.352 7.156 3.25 5.142 4.459 9.906 4.406c4.695-0.052 7.546-2.713 9.406-4.625s2.684-3.021 5.469-3.031c2.73-0.01 4.027 1.235 5.812 3.062 0.8925 0.9136 1.836 1.953 3.062 2.875 1.066 0.8013 2.467 1.516 4.062 1.688v-5.062c-0.3335-0.1085-0.6531-0.3173-1.062-0.625-0.6839-0.514-1.493-1.377-2.469-2.375-1.951-1.997-4.909-4.579-9.406-4.562-4.505 0.0163-7.237 2.685-9.062 4.562s-2.792 3.06-5.875 3.094c-3.134 0.0347-4.322-1.246-6.531-3.188s-5.386-4.469-10.47-4.469-8.26 2.528-10.47 4.469-3.397 3.222-6.531 3.188c-3.083-0.0342-4.049-1.216-5.875-3.094s-4.526-4.546-9.031-4.562z" fill="#fff" stroke-width="1.2"/>
   <g transform="translate(.3265 -.1722)" fill="#fcd116">
    <path d="m306 241.7c3.333 3.373 3.228 6.746 1.158 10.12l-41.84 47.11 6.51 6.238 49.91-42.58c7.745-8.277 2.52-23.28-15.73-20.89z"/>
    <path d="m298.3 273.2-29.23 28.46"/>
    <g transform="rotate(45.74 247.3 321.4)">
     <ellipse transform="matrix(1.374 0 0 1.012 -92.81 -29.83)" cx="248.5" cy="323.2" rx="7.052" ry="6.917" color="#000000" stroke-width=".8481"/>
     <path d="m244.6 303.4c1.63-2.264 6.194-2.313 7.866 0v17.25h-7.866z" color="#000000"/>
     <ellipse transform="matrix(.9925 0 0 1.012 2.005 -3.933)" cx="248.5" cy="323.2" rx="7.052" ry="6.917" color="#000000" stroke-width=".9979"/>
    </g>
   </g>
   <g transform="rotate(-43.21 492.9 872.9)" fill="#fcd116">
    <path d="m741.2 347.6c-0.3231-22.09-0.6968-42.17-0.8188-64.26-0.0892-4.296-0.1092-6.931 2.816-10.49 2.925 3.56 2.905 6.195 2.816 10.49-0.122 22.09-0.4958 42.18-0.8188 64.26-0.3335 9.706-1.186 10.9-1.997 14.14-0.8109-3.243-1.663-4.433-1.997-14.14z"/>
    <path d="m746.3 274.7c0.1534-0.6338-1.01-1.676-1.01-1.676l0.544-22.56c0.4294-3.368-0.4931-5.526-2.68-7.877-2.187 2.352-3.109 4.51-2.68 7.877l0.5366 22.56s-1.169 1.08-1.003 1.676c1.175 2.571 5.634 2.294 6.291 0z"/>
    <g>
     <ellipse transform="matrix(.98 0 0 .9256 14.07 18.02)" cx="744" cy="241.9" rx="2.575" ry="2.727" color="#000000" stroke-width="1.05"/>
     <path d="m739.4 249.1h7.56l2 1.925-2 1.925h-7.56l-2-1.925z" color="#000000"/>
     <path d="m740.1 269.1h6.135l1.623 1.925-1.623 1.925h-6.135l-1.623-1.925z" color="#000000"/>
    </g>
   </g>
  </g>
  <g>
   <path d="m310.2 342.2c-1.481-0.0603-2.322 1.045-0.7188 3.281-6.656-0.5243-3.662 3.957-0.625 3.719 2.574 3.462 1.71 5.748-1.062 5.688-2.332 0.9811 0.3032 3.405 5.219 3.531 0 0 5.387 7.197 8.188 9.344 6.776 5.195 12.09 2.969 12.09 2.969l-3.062-10.12-4.812-0.1562c-4.418-2.21-7.292-5.204-9-7.531 1.2-1.998 2.332-6.949 0.3125-9.75-2.264-1.941-2.984-0.498-2.781 1.281-1.068-1.461-2.598-2.203-3.75-2.25zm66.47 17.19c-4.716 8e-3 -12.04 3.734-10.41 3.656 3.815-0.9134 2.75 4.031 2.75 4.031s2.913 3.98 2.125 6.188c-0.5158 1.445-4.977 2.674-6.906 3.562-3.806 1.266-3.181-2.764-5.25-3.312-0.88-0.2332-2.719 0-2.719 0s-0.8659 1.017-0.8438 1.719c0.0232 0.7375 3.125 1.938 3.125 1.938s-3.425 1.255-3.375 2.125c0.0583 1.02 3.5 2.562 3.5 2.562s-3.184 1.347-3.031 2.406c0.2393 1.662 2.344 1.688 2.344 1.688s3.095 0.1821 4.438-0.4688c0.68-0.3296 1.7-0.9477 2.906-2.344 5.642-1.683 10.58-2.735 12.97-5.938 1.263-1.696 2.171-6.606 0.7188-10.19 2.915-5.897 0.8833-7.631-2.344-7.625z" fill="#fcd116" stroke="#000"/>
   <path d="m310.5 368c-2.979 0.1291-2.515 1.68-1.151 2.841-4.063-0.7713-7.371 2.846-2.575 3.803-5.219 4.164 0.0331 5.383 2.089 3.134 4.244 0.77 5.184 3.049 3.117 4.898-1.033 2.309 2.546 2.269 6.109-0.9735 6.39 3.058 15.33 4.949 21.98 3.634 7.695-1.523 10.26-7.259 11.66-13.39 0 0 3.254 0.3089 5.329-0.1878 3.815-0.9134 12.01-4.667 12.01-4.667 8.714-2.986 9.356 0.111 10.44 2.877 0 0 2.742 4.359 8.625 5.396 3.947 0.6956 10.28-1.861 14.09-0.6611 1.463 0.4602 3.179 1.293 3.656 2.697 1.112 3.273-2.92 2.636-3.469 4.705-0.2332 0.88 0 2.727 0 2.727s1.017 0.8612 1.719 0.8391c0.7375-0.0232 1.938-3.117 1.938-3.117s1.255 3.436 2.125 3.386c1.02-0.0583 2.562-3.506 2.562-3.506s1.347 3.179 2.406 3.027c1.662-0.2393 1.688-2.337 1.688-2.337s0.1821-3.092-0.4688-4.435c-0.6591-1.36-2.573-4.109-2.573-4.109s-4.594-4.934-7.618-6.145c-2.783-1.115-4.277 2.286-9.646-0.356-2.49-1.226-3.564-2.856-4.632-4.823 3.871 0.2653 8.43 0.5328 11.28 0.5394 2.746 7e-3 6.449 0.4167 10-0.1498 3.551-0.5665 7.132-2.322 8.812-6.353 0.8386-0.297 1.45-0.1733 2.91 1.095 0.7045-1.599 0.9936-3.402-1.756-4.236 0.2559-1.157 0.8534-0.9472 2.608-1.582-0.9536-1.543-3.326-2.641-4.896-1.123-0.1047-1.31-0.047-1.344 0.7982-2.654-1.987-0.3447-3.248 0.0987-4.226 1.607-3.024-1.139-6.645-1.56-9.219-1.289-8.184 0.8646-16.35 4.299-23.53 4.195-2.775-0.04-6.65-0.2136-9.938-1.109-3.287-0.8952-5.784-2.38-6.625-4.944-0.3748-1.143-0.2098-1.722 0.25-2.307s1.399-1.179 2.656-1.588c6.131-2.285 10.11 1.337 14.78 3.312 2.415 1.62 3.066 2.933 3.734 4.249 0.9347-0.5211 1.669-0.4315 2.594-2.492 0 0 3.874 0.6486 6.333 0.5199 3.007-0.1574 7.046-2.902 7.046-2.902-3.727 0.048-6.147 0.2732-8.938-0.7255 0.1857-0.4624 1.256-1.207 1.892-1.814-2.947-0.4644-5.985-0.7914-10.37 0.8905-4.03-1.926-7.405-4.67-11.66-4.694l5e-5 5e-5c-0.4215 3e-3 -0.8518 4e-3 -1.281 0.0299-1.718 0.1032-3.49 0.4064-5.094 0.929-1.604 0.5226-3.095 1.275-4.094 2.547-0.9985 1.272-1.318 3.086-0.7188 4.914 1.252 3.82 4.922 5.807 8.688 6.832 3.766 1.025 7.828 1.187 10.69 1.229 8.156 0.1174 16.43-3.403 23.94-4.195 1.863-0.1968 5.33 0.1857 7.781 1.109 1.225 0.4615 2.178 1.062 2.625 1.588 0.447 0.5259 0.5542 0.7986 0.25 1.528-1.278 3.066-3.56 4.111-6.531 4.585-2.972 0.474-6.492 0.1268-9.5 0.1199-3.655-9e-3 -9.513-0.4328-13.69-0.7492-0.3924-0.3078-0.8292-0.5971-1.344-0.8391-3.685-1.733-8.337-2.553-12.97-2.188-8.004 0.6314-16.02 5.04-23.62 4.405-2.802-0.2337-7.781-3.087-7.781-3.087l-6.281-0.2397-5.219 3.326c-0.866 3.131-0.4999 6.459 2 10.13v-3e-5c1.898 2 4.179 3.266 7.808 1.947 0 0-1.64 2.542-3.472 3.37-6.616 2.988-19.57-1.623-19.57-1.623-0.6212-2.327-3.169-6.708-6.558-7.374z" fill="#fcd116" stroke="#000"/>
   <g transform="matrix(1 0 0 .9589 0 15.01)" stroke-width="1.021">
    <path d="m334.7 351c-2.488-2.799-0.9181-2.929-0.6934-7.497 1.535 0.3355 2.151 1.242 2.78 2.14 0 0 0.2337-3.041 1.119-4.178 1.036-1.33 4.415-2.467 4.415-2.467l0.6492 2.078c0.6936-1.427 2.13-1.674 3.506-2.078 1.03 1.169 1.393 2.078 1.039 3.246l2.986-0.7791s1.464 2.691 1.428 4.155c-0.0317 1.282-1.428 3.571-1.428 3.571 0.9277-0.225 1.981-0.528 3.376 0.1948-2.746 3.658-1.621 4.76-5.324 5.324 0 0 1.116 0.9071 1.298 1.558 0.2359 0.8429-0.6429 2.668-0.3896 3.506 0.5411 1.789 3.766 3.246 3.766 3.246s-3.543 2.602-6.363 0.9089c-1.129-0.6776-2.857-2.727-2.857-2.727s0.3391 2.645-0.7791 4.415c-1.016 1.609-3.564 0.8938-4.804 2.337-0.5704 0.664-1.039 1.948-1.039 1.948s-2.379-2.001-2.986-3.506c-0.4377-1.084-0.3896-3.376-0.3896-3.376-5.048 2.842-8.502-2.25-8.18-5.194 0 0 2.164 1.328 3.636 1.298 0.9676-0.0191 2.088-0.4752 2.597-1.298 0.7054-1.141 0.0246-3.038 0.5194-4.285 0.4729-1.192 2.118-2.541 2.118-2.541z" fill="#fcd116" stroke="#000"/>
    <path d="m337.4 355.9c1.004 0.2614 2.241 0.5624 3.245-0.3863 0.4667 0.8241 0.3082 1.571 1.932 2.395-1.38 2.859-2.365 4.286-5.408 5.331-0.4197-2.449-0.1041-4.889 0.2318-7.34z" fill="#ce1126" stroke="#000"/>
    <g transform="rotate(21.03 369.9 266.3)" stroke-width="1.021">
     <g transform="rotate(-22.04 369.8 269.3)">
      <path d="m345.8 355.1s-0.6146 1.748-1.778 2.273c-0.8673 0.3914-1.925 0.4098-2.902-0.4236-0.8134-0.694-0.992-1.788-0.992-1.788s-0.8896 0.662-1.957 0.595c-1.281-0.0806-2.029-0.8298-2.38-1.714-0.4707-1.186 0.3034-2.87 0.3034-2.87" fill="none" stroke="#000" stroke-width="1.021"/>
     </g>
     <g transform="matrix(-.927 -.3752 -.3752 .927 823.2 158.4)">
      <path d="m347.5 351.7s0.1124-0.9947-0.1385-1.385c-0.6935-1.079-3.324-1.939-3.324-1.939-0.4155 1.708 0.3585 4.867-0.7299 4.572-1.418-0.6165-2.047-0.337-2.268 0.0256 0.0934-0.4143-0.1638-1.052-1.612-1.596-0.9873-0.545 1.263-2.48 2.152-3.996 0 0-2.488-1.212-3.737-0.9189-0.4517 0.106-1.063 0.8988-1.063 0.8988" fill="none" stroke="#000" stroke-width="1.021"/>
     </g>
    </g>
   </g>
  </g>
  <g stroke="#000" stroke-width="1px">
   <path d="m292.5 434.5 3.029 8.368 0.3273 28.24c-2.469 2.381-2.59 3.587-3.455 5.166 5.66-1.64 1.865 0.9193 6.976 4.348 1.643-2.869 2.156-6.09 5.796-3.53 0.8684-1.995-1.856-3.99-3.381-5.985l-0.491-28.16 3.168-9.857z" fill="#713f26"/>
   <path d="m303.8 404c1.734-0.2043 2.965-0.8747 4.168-3.009-3.475-1.627-6.36-0.1523-9.8 3.298l1.457-4.967s-3.26 0.1186-5.283 1.041c-1.804 0.8226-4.555 3.426-4.555 3.426-1.483-2.795-2.103-4.095-5.12-4.517l0.0388 3.889c-2.08-2.07-3.415-2.785-6.378-2.66l0.9672 3.087-5.272-1.896-0.0852 2.862c-3.221-1.824-4.736-2.7-7.957-2.672l1.545 3.664c-2.346-0.9075-4.693-1.234-7.039-0.276l3.451 2.898c-2.76 0.7131-5.908 0.9905-6.625 4.003l4.555 0.6901c-3.492 1.577-4.442 3.698-4.201 6.075l4.891-1.52c-0.9119 2.874-1.188 4.478-1.305 5.761l2.961-0.2404c-0.9418 1.738-3.042 2.583-2.898 7.867l4.141-1.656c-0.9742 1.928-2.439 3.575-0.9662 6.901l2.484-2.76c-0.4756 2.53-1.434 5.061 0 7.591l2.898-2.898c2e-3 2.296-0.1453 4.891-0.6901 8.281 3.099-0.7658 4.019-3.71 5.383-6.211 0.1379 1.821 0.5021 3.589 1.932 5.107l1.932-4.969c0.4925 2.716 1.453 4.657 2.898 5.797l1.656-5.245c1.031 2.819 1.01 4.937 0.9662 7.039 1.483-1.142 2.425-2.707 2.829-4.006 0.2626 1.734 0.494 3.208 1.861 4.353 1.071-1.28 2.112-3.089 2.211-5.04 1.193 2.571 1.853 4.096 4.061 5.581l1.926-4.575c0.572 2.363 1.803 3.734 3.01 5.78 1.634-2.368 2.416-4.736 2.769-7.104l2.167 4.094c1.16-0.8165 3.008-2.702 2.38-5.291 2.837 2.596 4.545 1.702 5.206 2.281-0.7532-1.816-1.287-3.56-1.084-5.057 2.99 2.489 3.389 3.914 6.984 4.575 0.3881-3.687-2.081-5.48-3.01-8.188l4.937 3.371c0.4677-4.1-2.276-5.785-4.214-9.151l4.575 1.926c-0.2173-3.189-2.607-4.264-4.214-6.743 3.096 1.225 5.315 1.33 8.067 0.2408-2.115-2.345-4.078-2.816-6.622-4.937l4.816 0.602c-0.2536-3.22-2.009-4.348-4.816-5.78 2.469-0.2643 4.778 0.9205 7.345 0.602-2.129-3.234-3.588-4.74-7.586-4.696 2.791-1.667 3.575-2.399 4.094-5.298-4.146-0.66-7.276 2.213-10.96 2.167l2.769-3.371s-1.805-0.8771-3.973-0.4816c-1.599 0.2917-2.403 1.743-3.973 1.324-0.5558-0.1481-1.71-0.9619-1.71-0.9619z" fill="#006b3f"/>
   <g fill="none">
    <path d="m275.3 430.6c-2.527 1.33-3.736 3.157-4.83 5.765 3.004 0.1303 4.451 0.8862 7.635-2.181 0.0541 3.694 2.121 4.103 3.895 5.765 1.3-2.512 1.901-3.745 1.558-6.544 2.799 2.816 3.71 2.308 6.388 2.961-0.8409-0.751 0.7567-2.924-1.558-5.142 4.614-0.0928 4.101-1.003 5.298-2.181-2.51-1.993-5.51-1.535-8.414-1.558"/>
    <path d="m296.9 431.6c-2.527 1.33-3.736 3.157-4.83 5.765 3.004 0.1303 4.451 0.8862 7.635-2.181 0.0541 3.694 2.121 4.103 3.895 5.765 1.3-2.512 1.901-3.745 1.558-6.544 2.799 2.816 3.71 2.308 6.388 2.961-0.8409-0.751 0.7567-2.924-1.558-5.142 4.614-0.0928 4.101-1.003 5.298-2.181-2.51-1.993-5.51-1.535-8.414-1.558"/>
    <path d="m309.9 417.2c2.743 0.7924 4.295 2.338 5.894 4.672-2.916 0.7335-4.181 1.766-7.918-0.5966 0.692 3.629-1.25 4.447-2.653 6.432-1.78-2.198-2.617-3.285-2.846-6.096-2.173 3.323-3.168 3.009-5.66 4.188 0.6721-0.9052-1.331-2.711 0.489-5.351-4.538 0.8398-4.219-0.1552-5.629-1.068 2.056-2.459 5.087-2.615 7.927-3.223"/>
    <path d="m283.4 417.7c2.743 0.7924 4.295 2.338 5.894 4.672-2.916 0.7335-4.181 1.766-7.918-0.5966 0.692 3.629-1.25 4.447-2.653 6.432-1.78-2.198-2.617-3.285-2.846-6.096-2.173 3.323-3.168 3.009-5.66 4.188 0.6721-0.9052-1.331-2.711 0.489-5.351-4.538 0.8398-4.219-0.1552-5.629-1.068 2.056-2.459 5.087-2.615 7.927-3.223"/>
    <path d="m294.8 406.9c2.743 0.7924 4.295 2.338 5.894 4.672-2.916 0.7335-4.181 1.766-7.918-0.5966 0.692 3.629-1.25 4.447-2.653 6.432-1.78-2.198-2.617-3.285-2.846-6.096-2.173 3.323-3.168 3.009-5.66 4.188 0.6721-0.9052-1.331-2.711 0.489-5.351-4.538 0.8398-4.219-0.1552-5.629-1.068 2.056-2.459 5.087-2.615 7.927-3.223"/>
   </g>
  </g>
  <g transform="translate(0,2)" fill="none" stroke="#000">
   <path d="m421 468.3-9.444-57.61-9.444 57.61" stroke-width="1px"/>
   <path d="m411.6 411.5v56.94"/>
   <path d="m403.6 465.5 14.54-10.5-12.32-8.281 10.1-8.281-7.473-7.271 5.823-6.025" stroke-width="1px"/>
   <path d="m420.1 465.5-14.54-10.5 12.32-8.281-10.1-8.281 7.473-7.271-6.008-6.025" stroke-width="1px"/>
  </g>
  <g stroke="#000">
   <path d="m424.4 445.2h5.231 5.231l5.231 3.976v9.485 14.75h-10.46-10.46v-14.75-9.485z" color="#000000" fill="#ce1126"/>
   <path d="m419.1 452.3h20.94" fill="none"/>
   <path d="m419.1 461.6h20.94" fill="none"/>
   <g fill="#ce1126">
    <rect x="432.2" y="464" width="4.086" height="6.98" color="#000000"/>
    <rect x="423" y="464" width="4.086" height="6.98" color="#000000"/>
    <rect transform="rotate(90)" x="455.3" y="-431.2" width="3.714" height="3.193" color="#000000"/>
    <rect transform="rotate(90)" x="455.3" y="-437.2" width="3.714" height="3.193" color="#000000"/>
    <rect transform="rotate(90)" x="455.3" y="-425.2" width="3.714" height="3.193" color="#000000"/>
   </g>
  </g>
  <path d="m482.3 364.7v-128.2h-244.7v128.2c0.8576 46.14 14.31 79.88 36.12 105.3s51.96 42.54 86.21 55.43c34.25-12.89 64.41-30 86.21-55.43 21.8-25.43 35.26-59.17 36.12-105.3z" fill="none" stroke="#000" stroke-width="2"/>
 </g>
 <g transform="translate(4e-6 -5.353)" stroke="#000">
  <path transform="translate(73.11 90.79)" d="m342.1 121.1-55.34-38.41-55.43 38.24 19.43-64.5-53.5-40.9 67.35-1.449 22.37-63.52 22.19 63.6 67.32 1.644-53.63 40.76z" color="#000000" fill="#fcd116" stroke-width="1.5"/>
  <path transform="matrix(.729 0 0 .729 150.9 102.5)" d="m342.1 121.1-55.34-38.41-55.43 38.24 19.43-64.5-53.5-40.9 67.35-1.449 22.37-63.52 22.19 63.6 67.32 1.644-53.63 40.76z" color="#000000" stroke-width="2.058"/>
 </g>
 <g transform="matrix(1.293 0 0 1.074 -174.9 4.186)" stroke="#000" stroke-width="1.273">
  <path d="m383.3 187.4c0.448-3.037 6.874-7.022 12.34-4.299 12.74-6.643 21.44 7.844 22.75 15.65-2.606 1.49-5.357 2.178-9.363-0.2034-1.834 2.585-6.892 2.66-10.36 0.6525-1.806-1.188-2.975-2.324-4.332-3.974-2.444-4.312-6.764-5.418-11.03-7.83z" fill="#fcd116"/>
  <path d="m367.9 191.2c-3.123 0.6749-6.284 2.499-8.27 4.577-3.402 3.559-4.297 9.187-1.417 13.15 3.774 5.188 10.97 6.644 15.62 2.101 1.877-1.836 2.85-3.587 2.757-6.135 3.138-0.1883 6.135-1.404 7.37-4.357 0.4333-1.099 0.2775-3.051 0.3144-4.215 0.0381-1.203 5e-3 -4.009 5e-3 -4.009s-11.09-2.252-16.38-1.11z" fill="#ce1126"/>
  <path d="m448.1 203.8c3.93 7.117 11.34 13.52 19.16 7.575 7.4-5.629 3.182-18.57-6.068-17.26-1.253-7.517-12.5-6.425-13.72-6.028z" fill="#fcd116"/>
  <path d="m365.8 191.2c3.224-3.055 6.523-4.587 10.8-3.169 4.168-5.519 10.44-1.698 14.46 1.836 3.318 3.415 6.25 6.938 10.45 10.08-3.386 2.304-5.91 3.472-9.438 1.409-4.582 4.902-11.02 2.409-15.01-1.22-0.8633-0.7857-2.085-2.813-3.201-4.188-2.307-2.845-4.604-4.843-8.058-4.743z" fill="#006b3f"/>
  <path d="m408.4 182.6c3.753-1.435 7.83-1.849 11.12 0.4824 6.328-4.318 13.59 0.3745 14.64 5.471 0.7601 1.252-0.1876 2.457 0.5748 4.111 0.4348 0.9437 0.95 2.503 1.317 3.25 1.025 2.085 2.966 6.383 2.966 6.383-3.846 0.9926-6.538 1.269-9.218-1.641-5.717 3.295-11.4-0.8613-14.15-5.484-0.5952-1.001-1.16-3.298-1.821-4.937-1.226-3.037-3.071-5.763-5.437-7.637z" fill="#006b3f"/>
  <path d="m430.8 183c3.929-0.4363 7.421-0.1912 9.977 2.835 6.436-2.53 10.26 3.816 11.36 9.072 0.9906 4.763-0.6208 10.89 1.542 15.99-4.095-0.8621-5.43-2.941-6.759-5.688-3.597 1.133-7.697-0.4664-9.777-3.487-2.351-3.415-2.43-6.73-2.884-10.57-0.3832-3.243-1.638-5.746-3.455-8.147z" fill="#ce1126"/>
 </g>
 <g transform="translate(-.4366)" fill="#fcd116" stroke="#000" stroke-width="1.5">
  <path d="m295.8 526.4s1.444 7.688-0.4857 10.69c-6.441 10.01-6.098 3.946-1.7 25.31l9.957 8.443 3.643 10.69s18.79-11.69 24.15-21.13c1.664-2.927 2.092-6.613 1.7-9.957-0.4811-4.107-2.169-7.835-4.238-11.41-3.096-5.354-11.17-14.81-11.17-14.81z"/>
  <path d="m107.4 522.5s-6.558-6.937-6.963-11.36c-0.3104-3.389 1.69-6.757 3.665-9.528 10.56-14.83 32.23-22.97 41.78-38.48 2.5-4.062 3.298-10.63 3.298-10.63l52.77 7.696s6.125 14.81 4.764 21.68c-3.141 13.92-14.98 15.42-23.82 21.93l-10.63 6.596-51.67 11.73z"/>
  <path d="m131.6 488.5c9.664-17.19 26.84-22.81 39.95-24.45 10.93-1.372 32.13-1.227 35.54 16.39-2.55-15.41-4.256-38.41-7.696-45.81-36.64-20.17-53.61-9.968-73.66 4.398 5.461 17.99 7.242 34.41 5.863 49.47z"/>
  <path d="m101.1 506.9c-0.2685 2.511 1.626 5.589 3.739 6.293 9.387 3.129 20.22 2.619 32.9 0.358 30.11-5.369 70.71-22.19 127.2-20.49 14.04 0.4233 39.88 1.007 55.44 10.36 0.3743 3.854-0.621 4.333-0.0283 8.159 1.231 7.948 5.258 16.15 9.453 23.01 4.775 7.81 3.342 18.62 3.342 18.62 1.668-10.6-36.17-21.18-54.42-23.87-24.76-3.654-57.61 4.907-85.7 10.31-37.24 7.158-51.68 12.29-67.07 13.09-2.229 0.1148-4.777 0.3018-6.512-1.558-3.581-3.838-3.434-12.43-5.901-17.06-3.881-7.288-16.62-20.15-12.48-27.21z"/>
  <g transform="matrix(-1 0 0 1 720.9 0)">
   <path d="m295.8 526.4s1.444 7.688-0.4857 10.69c-6.441 10.01-6.098 3.946-1.7 25.31l9.957 8.443 3.643 10.69s18.79-11.69 24.15-21.13c1.664-2.927 2.092-6.613 1.7-9.957-0.4811-4.107-2.169-7.835-4.238-11.41-3.096-5.354-11.17-14.81-11.17-14.81z"/>
   <path d="m107.4 522.5s-6.558-6.937-6.963-11.36c-0.3104-3.389 1.69-6.757 3.665-9.528 10.56-14.83 32.23-22.97 41.78-38.48 2.5-4.062 3.298-10.63 3.298-10.63l52.77 7.696s6.125 14.81 4.764 21.68c-3.141 13.92-14.98 15.42-23.82 21.93l-10.63 6.596-51.67 11.73z"/>
   <path d="m131.6 488.5c9.664-17.19 26.84-22.81 39.95-24.45 10.93-1.372 32.13-1.227 35.54 16.39-2.55-15.41-4.256-38.41-7.696-45.81-36.64-20.17-53.61-9.968-73.66 4.398 5.461 17.99 7.242 34.41 5.863 49.47z"/>
   <path d="m101.1 506.9c-0.2685 2.511 1.626 5.589 3.739 6.293 9.387 3.129 20.22 2.619 32.9 0.358 30.11-5.369 70.71-22.19 127.2-20.49 14.04 0.4233 39.88 1.007 55.44 10.36 0.3743 3.854-0.621 4.333-0.0283 8.159 1.231 7.948 5.258 16.15 9.453 23.01 4.775 7.81 3.342 18.62 3.342 18.62 1.668-10.6-36.17-21.18-54.42-23.87-24.76-3.654-57.61 4.907-85.7 10.31-37.24 7.158-51.68 12.29-67.07 13.09-2.229 0.1148-4.777 0.3018-6.512-1.558-3.581-3.838-3.434-12.43-5.901-17.06-3.881-7.288-16.62-20.15-12.48-27.21z"/>
  </g>
 </g>
 <use transform="matrix(-1 0 0 1 719.9 0)" width="720" height="600" xlink:href="#g5137"/>
 <g id="g5137">
  <path d="m479.9 327.3c-0.3076 0.0128-0.6169 0.0295-0.9062 0.0937 0 0 3.517 5.67 4.062 8.875 0.4306 2.529-0.7188 7.656-0.7188 7.656s-1.682-3.688-3.125-5.031c-2.771-2.579-6.257-3.882-10.03-3.594-1.879 0.1435-4.562 1.688-4.562 1.688-3.754-1.84-6.168-2.309-9.812-1.188 2.698 2.018 5.878 3.608 7.812 6.281 1.071 1.48 0.6602 3.544 1.75 5.688 1.434 2.821 3.39 3.163 7.281 6.188 4.653 3.616 10.02 8.34 11.16 13.22 0.5577 2.385-0.0442 4.772-1.188 6.938-1.811 3.431-5.936 5.595-6.938 9.344-0.7056 2.64 1.656 6.688 1.656 6.688-1.675 4.274-5.315 3.594-8.125 5.031 1.944 1.23 7.699 3.425 11.72-1.906 0 0 4.359-1.856 5.75-4.312 2.27-4.01 3.375-13.41 3.375-13.41 20.49-0.5415 28.18-3.914 44.78-15.34l-3.125-11c-14.39 9.846-22.08 14.2-39.28 13.16 0 0 5.089-6.861 6.25-11 0.7975-2.844 1.305-6.042 0.4688-8.875-0.9156-3.101-2.766-6.093-5.281-8.125-1.926-1.556-6.938-2.656-6.938-2.656-1.397-3.293-3.878-4.496-6.031-4.406zm84.69 41.59c0.172 22.89 4.035 46.46-3.594 53.75 0 0-3.915 0.3159-5.844 0.0312-3.381-0.4991-6.487-2.242-9.812-3.031-3.331-0.7906-6.719-2.027-10.12-1.688-2.517 0.251-5.895 1.03-6.719 3.656-3.572 0.5232-5.538 4.538-4.75 7.125 2.453-2.21 4.978-3.712 7.75-3.375 0 0-6.649 5.324-8.094 9.125-0.84 2.209 0 7.094 0 7.094 1.14-1.984 1.246-4.315 5.062-5.406 0 0 3.79 1.498 5.75 1.344 2.667-0.2101 7.406-3.031 7.406-3.031s-2.214 5.013-2.406 6.75c-0.4702 4.414-0.2324 8.833 4.094 11.19 0 0-0.4045-1.883 0-3.406 0.4658-1.754 1.149-3.808 2.719-4.719 2.044-1.186 2.542 0.5789 4.719-0.3438 5.123-2.172 12.33-9.31 14.66-9.656 2.422-0.3613 3.404 0.1214 5.469 1.438 3.272 2.085 5.096 6.383 8.75 7.688 2.574 0.9187 6.812-1.125 6.812-1.125 4.123 2.019 3.14 5.613 4.344 8.531 1.385-1.838 4.048-7.433-0.9375-11.88 0 0-1.509-4.476-3.844-6.062-3.811-2.59-13.09-6.125-13.09-6.125 6.004-18.63 5.308-36.9 7.281-56.34l-15.59-1.531z" fill="#1a1a1a" stroke="#000" stroke-width="1.5"/>
  <path d="m508.1 358.9s11.86-5.796 16.55-10.29c2.48-2.373 3.54-5.927 5.814-8.498 5.529-6.25 14.03-11.48 18.78-18.34 1.83-2.639 3.43-7.212 3.43-7.212l14.52-38.1s36.18-36.8 45.01-62.42c2.694-7.812 1.361-16.51 3.001-24.61 2.024-9.992 7.594-19.25 8.403-29.41 0.3997-5.022-1.801-15-1.801-15 3.297-0.2996 5.963 1.922 8.403 5.052 11.87-31.71 6.898-59.62-3.501-77.02 29.62 27.54 20.89 42.7 23.81 61.62 9.992-24.88 6.509-53.97 1.05-72.12 17.02 24.08 22.07 49.44 12.95 76.32 15.39-20.42 18.36-36.7 19.96-52.52 9.534 36.21-2.622 45.56-11.9 58.47 16.61-9.071 25.61-24.07 33.96-39.56-0.2167 24-8.935 40.29-25.21 49.72 11.06-2.24 23.01-9.264 35.71-20.31-2.804 19.63-18.52 28.76-36.06 36.41 15.66-2.32 27.09-7.181 38.16-12.25-11.26 19.02-21.5 22.82-31.86 28.36 6.558-0.8987 14.34-1.623 23.8-2.106-6.56 7.47-13.89 14.45-28.23 17.01l17.4 1.16c-7.886 6.807-15.33 6.937-22.81 7.733 4.995 1.657 10.07 3.312 12.37 5.027-7.268 3.399-16.15 4.916-25.91 5.413 7.748 1.986 13.09 4.172 15.85 6.573-8.02 4.088-15.58 2.625-23.2 1.933 5.936 3.51 12.66 6.825 15.08 11.21-6.96 2.178-13.92 0.782-20.88 0.3867 7.405 3.167 11.58 6.737 11.6 10.83-5.8 1.821-11.6-1.38-17.4-3.48 3.756 3.48 7.924 6.96 8.12 10.44-4.64 1.376-9.28-1.477-13.92-3.093 2.062 4.414 6.274 8.291 5.027 13.53-3.609 0.3056-7.218-3.474-10.83-6.187 1.476 5.099 3.428 10.58 2.707 13.92-5.248-1.501-7.469-4.514-10.05-7.346 2.379 6.315 3.795 12.63 3.867 18.95-3.222-1.536-6.444-3.522-9.666-7.346 0.9016 5.498 2.317 11.68 1.933 15.47-2.623-1.408-6.451-4.822-10.44-8.506 2.933 4.898 6.912 9.795 7.733 14.69-7.812 0.3144-14.69-3.092-22.04-4.64 0 0-8.725 15.29-11.9 23.46-2.101 5.403-2.151 11.53-4.675 16.75-3.845 7.95-12.12 11.79-18.08 18.3-5.348 5.835-9.981 16.95-14.64 17.46-1.443 0.1565-1.561-3.034-1.561-3.034s-4.859 8.593-8.57 7.242c-2.21-0.8042-0.7791-6.074-0.7791-6.074s-7.588 11.89-12.54 9.423c-2.907-1.45 0.0769-8.644 0.0769-8.644s-10.56 5.555-13.08 1.243c-3.593-6.144 11.52-15.66 11.52-15.66-7.486 3.17-11.25 1.371-15.08-0.3318z" fill="#fcd116" stroke="#000" stroke-width="1.5"/>
  <path d="m609.7 235.5s8.718 2.739 10.46-0.2828c1.287-2.228-3.676-6.787-3.676-6.787s8.693 1.136 9.332-1.979c0.6246-3.049-7.635-5.373-7.635-5.373s8.486 1.616 9.332-1.414c0.7917-2.836-6.787-5.656-6.787-5.656s9.284 1.634 10.46-1.697c0.8016-2.266-4.807-5.373-4.807-5.373s8.896 1.686 9.897-1.979c0.6908-2.528-4.807-4.242-4.807-4.242s7.514 0.2336 8.201-2.545c0.4477-1.812-3.959-3.959-3.959-3.959s7.322 0.3736 7.635-2.262c0.2444-2.055-5.373-3.111-5.373-3.111s8.44 0.2252 8.766-2.828c0.2197-2.058-5.373-3.111-5.373-3.111s8.956-1.826 8.483-5.09c-0.4329-2.987-8.766-2.262-8.766-2.262s4.369-3.106 3.393-4.807c-1.648-2.872-9.897 0.8483-9.897 0.8483s1.962-3.42 0.5656-4.807c-1.82-1.807-5.986 1.76-5.986 1.76 4.599-9.972 10.49-19.42 9.203-32.96 11.93-21.63 3.273-41.12-9.288-60.21" fill="none" stroke="#000" stroke-width="1px"/>
  <path d="m606.6 254.2s12.57 4.523 15.55 0.2828c1.683-2.391-3.111-8.201-3.111-8.201s6.911 2.41 8.201 0c1.283-2.397-4.524-6.787-4.524-6.787s9.1 3.182 10.75 0c1.273-2.462-4.807-6.787-4.807-6.787s10.09 2.722 11.59-0.8483c0.9095-2.158-4.524-5.373-4.524-5.373s8.966 1.786 9.897-1.414c0.7289-2.503-5.938-5.09-5.938-5.09s9.529 1.707 11.03-1.697c0.8223-1.866-3.393-5.09-3.393-5.09s6.607 0.7054 7.352-1.697c0.455-1.465-3.111-3.393-3.111-3.393s6.603 0.1676 7.069-2.262c0.3912-2.039-4.807-3.959-4.807-3.959s9.921-1.619 9.897-5.373c-0.013-2.024-5.373-2.828-5.373-2.828s7.318-1.879 7.352-4.807c0.0212-1.83-4.524-3.111-4.524-3.111s8.621-4.963 7.352-8.483c-0.7773-2.158-6.787-1.131-6.787-1.131s5.989-5.065 4.524-7.635c-1.353-2.375-8.201 0-8.201 0s6.033-4.3 4.807-6.787c-1.084-2.2-7.352-0.2828-7.352-0.2828s2.491-5.061 0.8483-6.504c-2.49-2.188-9.614 2.545-9.614 2.545s2.208-4.173 0.8483-5.373c-3.31-2.922-12.73 3.676-12.73 3.676" fill="none" stroke="#000" stroke-width="1px"/>
  <path d="m652.9 64.92c15.25 38.46 10.38 63.89-2.493 84.14" fill="none" stroke="#000" stroke-width="1px"/>
  <path d="m659.7 149.7c22.66-15.34 26.49-37.18 25.24-60.77" fill="none" stroke="#000" stroke-width="1px"/>
  <path d="m665 157.4c11.05-5.349 35.33-15.44 41.19-50.06" fill="none" stroke="#000" stroke-width="1px"/>
  <path d="m670.6 167.1c14.77-3.972 29.43-6.558 45.81-31.48" fill="none" stroke="#000" stroke-width="1px"/>
  <path d="m668.7 182.6c13.51-3.493 24.16-2.663 48.69-22.81" fill="none" stroke="#000" stroke-width="1px"/>
  <path d="m666 196.9c14.4-1.039 29.3-5.091 44.6-11.58" fill="none" stroke="#000" stroke-width="1px"/>
  <path d="m661.2 205.4c11.46 0.715 22.5 1.956 37.45-1.702" fill="none" stroke="#000" stroke-width="1px"/>
  <path d="m689.2 215.6c-12.8 0.8778-25.41 1.525-35.07-1.362" fill="none" stroke="#000" stroke-width="1px"/>
  <path d="m677.9 228.2c-11.55-1.929-23.58-3.859-28.94-5.788" fill="none" stroke="#000" stroke-width="1px"/>
  <path d="m670.8 240.8c-11.04-3.291-23.87-6.583-28.26-9.874" fill="none" stroke="#000" stroke-width="1px"/>
  <path d="m661.9 252.4c-10.47-4.54-20.96-10.28-25.2-14.82" fill="none" stroke="#000" stroke-width="1px"/>
  <path d="m652.7 259.5c-9.763-5.562-17.8-11.07-21.27-16" fill="none" stroke="#000" stroke-width="1px"/>
  <path d="m644.2 270.4c-5.05-7.15-9.847-14.3-17.36-21.45" fill="none" stroke="#000" stroke-width="1px"/>
  <path d="m636 277.6c-5.473-7.964-10.67-15.72-13.62-21.79" fill="none" stroke="#000" stroke-width="1px"/>
  <path d="m629.6 288.5c-4.707-7.431-10.47-15.59-11.92-20.77" fill="none" stroke="#000" stroke-width="1px"/>
  <path d="m621.4 296.6c-3.354-10.44-5.688-12.77-8.349-17.69" fill="none" stroke="#000" stroke-width="1px"/>
  <path d="m619 303.1c-5.895-6.758-12.79-15.84-16-16.34" fill="none" stroke="#000" stroke-width="1px"/>
  <path d="m613.2 290.4-5.699-6.611" fill="none" stroke="#000" stroke-width="1px"/>
  <path d="m620.5 282.5-10.94-14.82" fill="none" stroke="#000" stroke-width="1px"/>
  <path d="m627.3 272.9c-4.892-9.257-7.812-11.61-11.63-17.1" fill="none" stroke="#000" stroke-width="1px"/>
  <path d="m633.7 263.8-12.77-17.32" fill="none" stroke="#000" stroke-width="1px"/>
  <path d="m639.9 256.9c-5.304-6.05-9.032-8.946-12.54-11.4" fill="none" stroke="#000" stroke-width="1px"/>
  <path d="m647.4 250.8c-5.64-5.513-10.14-8.18-14.59-10.71" fill="none" stroke="#000" stroke-width="1px"/>
  <path d="m652.4 242.1c-11.47-5.153-14.03-8.169-15.27-8.662" fill="none" stroke="#000" stroke-width="1px"/>
  <path d="m659.7 230.3c-5.315-0.5969-10.73-2.17-15.27-4.103" fill="none" stroke="#000" stroke-width="1px"/>
  <path d="m667 221.6c-9.344-0.1355-12.52-2.402-16.87-3.647" fill="none" stroke="#000" stroke-width="1px"/>
  <path d="m679.3 210.9c-16.35 0.2017-22.39-2.299-24.62-3.191" fill="none" stroke="#000" stroke-width="1px"/>
  <path d="m685.5 201.8c-7.059 0.9782-16.5 0.6915-25.99-1.368" fill="none" stroke="#000" stroke-width="1px"/>
  <path d="m690.5 186c-9.533 3.874-23.9 6.425-28.49 6.383" fill="none" stroke="#000" stroke-width="1px"/>
  <path d="m536.4 344s-5.925 11-1.96 13.57c3.697 2.393 9.937-8.604 9.937-8.604" fill="none" stroke="#000" stroke-width="1px"/>
  <path d="m544.8 336.3s-6.745 10.59-2.779 13.16c3.697 2.393 9.732-7.58 9.732-7.58" fill="none" stroke="#000" stroke-width="1px"/>
  <path d="m544.6 326.8s-7.359 7.522-3.394 10.09c3.697 2.393 9.732-7.58 9.732-7.58" fill="none" stroke="#000" stroke-width="1px"/>
  <path d="m536 334.8s-7.359 7.522-3.394 10.09c3.697 2.393 9.732-7.58 9.732-7.58" fill="none" stroke="#000" stroke-width="1px"/>
  <path d="m537.6 357.4s-1.763 5.038 0 5.941c1.872 0.9591 3.565-0.6333 5.122-2.049 2.148-1.954 5.736-8.195 5.736-8.195" fill="none" stroke="#000" stroke-width="1px"/>
  <path d="m543.3 360.3c-2.952 14.19 7.851 2.779 10.45-3.483" fill="none" stroke="#000" stroke-width="1px"/>
  <path d="m521.4 360.5c5.883-3.003 10.49-8.976 14.75-15.78" fill="none" stroke="#000" stroke-width="1px"/>
  <path d="m524.1 374c5.277-4.302 9.255-8.605 12.91-12.91" fill="none" stroke="#000" stroke-width="1px"/>
  <path d="m536.8 375.5c-7e-3 -2.378 2.973-6.035 6.761-10.04" fill="none" stroke="#000" stroke-width="1px"/>
  <path d="m554.8 324.4s-7.137-2.76-12.67-8.449c-11.73-12.05-27.26-35.84-32.39-51.75-1.666-5.172 0.4029-13.65 0.4029-13.65-4.477-5.851-35.1-36.98-40.91-39.04-1.371-0.4851-4.198 0.3457-5.372 1.465-0.8217-4.428-0.1523-6.574 2.431-8.53 3.585-2.713 8.854-0.9566 13.77-1.901 2.637-3.113 5.991-3.393 10.7-3.012 13.67 1.108 32.11 13.09 32.46 13.66 0.7375 1.258 0.0335 2.111-0.3927 2.331 8.271 3.976 23.05 17.33 29.74 30.97 0.8517-0.53 2.109-0.6374 2.83-1.262 16.61-14.39-0.6452-51.77-19.8-70.86-6.486-6.462-13.01-14.48-23.71-20.18-4.76-2.538-10.4-4.379-17.12-5.9-2.498-0.565-4.936-2.624-7.39-6.803-6.88-11.71-13.38-34.12-16.88-44.02-10.29-29.1-38.88-83.5-56.34-89.67 9.577-1.198 35.77 10.16 64.57 67.93-6.16-24.3-18.11-59.21-29.03-74.27 24.17 6.877 38.14 46.62 39.03 64.78 2.026-26.26-2.924-44.91-5.679-53.95 13.82 13.35 23.64 37.68 22.71 57.5 3.213-10.47 4.925-21.84 6.152-33.5 0.4896-4.653 0.9019-9.353 1.301-14.06 11.2 16.55 10.82 39.15 8.882 57.17 7.656-13.65 13.67-27.31 17.45-40.96 1.918 3.199 6.977 20.57 2.424 33.69 3.322-4.248 6.615-8.501 13.09-12.12 2.731 10.6 0.0739 24.21-0.7272 31.75 4.974-2.933 8.438-6.538 18.91-7.029 1.56 10.57-5.723 17.69-9.695 24.72 5.141-3.155 10.05-6.653 17.69-6.06 1.846 11.74-5.075 16.21-9.211 21.57 3.414-1.454 6.596-3.217 11.88-2.181-0.7947 11.58-6.506 13.33-10.18 19.15 2.699-1.518 12.34-2.883 17.21-0.7272-0.9802 7.977-5.354 9.168-8.726 12.36 4.178-0.1758 6.709-1.339 13.82 0.2424-3.382 12.81-8.803 10.33-13.33 14.54 7.433-1.859 12.1 0.3672 16.97 3.636-2.126 5.937-5.631 11.19-11.88 12.6 3.35 1.133 10.58-2.115 17.35 6.925-3.79 3.353-7.313 6.129-10.6 6.943 7.191-0.0173 12.2 0.6185 16.14 4.242-1.806 4.573-4.755 6.254-7.895 7.358 6.816 1.011 10.65 2.39 12.4 4.415-4.219 5.322-7.295 5.182-11.51 6.181 5.896 0.7472 11.78 1.541 16.19 8.241-3.238 5.207-6.475 6.031-9.713 6.769 5.937 2.575 10.02 6.075 10.89 11.18-4.512 4.402-11.65 3.161-15.01 3.826 9.615 5.341 12.21 12.92 12.07 17.07-3.036 1.284-9.451 0.8549-12.55-0.4192 4.546 4.742 8.666 10.42 7.837 16.31-6.997 2.261-11.67-1.309-15.89-2.355 6.495 5.4 7.929 10.46 12.02 19.83 6.82 15.62 24.92 32.74 28.54 37.51 9.538 12.59 18.18 25.53 28.43 37.86 8.17 9.836 17.34 19.3 28.75 27.92 0.8484 5.508-0.0283 9.577-7.514 8.14 1.504 3.668 1.15 11.21-10.5 8.14-1.167 2.811 0.3089 14.34-12.08 9.715-0.5054 8.773-8.311 8.5-12.6 4.726-0.041 3.448-8.942 9.326-14.7 1.838-2.669 5.851-10.13 8.26-14.7 1.575-4.814 6.356-12.78 4.644-15.23 0-4.108 3.282-10.08 2.191-11.82-1.838 0 0 2.722-34.75 2.684-57.76-0.0164-9.727-5.186-19.41-7.935-20 0.1368 4.589 1.023 10.71-2.701 16.24l-4.051-3.601c1.686 5.177 2.859 10.35 1.575 15.53-1.831-0.5266-3.461-0.0489-5.852-3.376 0.777 4.042 2.802 7.669 0.2251 12.83-2.218-1.339-5.083-0.951-5.627-6.752-1.145 6.105-2.761 7.501-4.501 7.652-1.733-2.804-3.689-4.274-4.276-13.95-0.7072 2.085-1.087 4.333-2.926 5.852-7.715-21.66-8.614-56.24-7.872-64.98z" fill="#fcd116" stroke="#000" stroke-width="1.5"/>
  <path d="m579.1 322.9c4.078 5.408 9.425 7.933 16.76 5.942" fill="none" stroke="#000" stroke-width="1px"/>
  <path d="m598.5 319.5c-0.2959 2.69 0.5905 7.884 5.858 7.364" fill="none" stroke="#000" stroke-width="1px"/>
  <path transform="translate(-12.05 -108.5)" d="m616.2 433c-0.2959 2.69 0.5905 7.884 5.858 7.364" fill="none" stroke="#000" stroke-width="1px"/>
  <path d="m609.4 328.4c0.0497 6.774 6.596 11.88 9.539 11.38" fill="none" stroke="#000" stroke-width="1px"/>
  <path transform="translate(-12.05 -108.5)" d="m631 440.8c2.657 6.231 10.67 8.419 13.19 6.824" fill="none" stroke="#000" stroke-width="1px"/>
  <path d="m471.4 202.9s3.46 3.092 8.174 3.936c3.598 0.6438 8.502 0.0162 12.11 0.6055 4.942 0.8074 8.732 2.169 13.47 3.784 3.226 1.1 6.517 2.536 9.688 3.784 4.27 1.681 8.023 0.6055 8.023 0.6055" fill="none" stroke="#000" stroke-width="1px"/>
  <path d="m479.6 206.4c3.679 21.46 28.3 23.85 33.76 18.77" fill="none" stroke="#000" stroke-width="1px"/>
  <path d="m486.5 207.3c1.234 4.739 5.741 7.21 10.9 5.298l-3.027-4.693" fill="none" stroke="#000" stroke-width="1px"/>
  <path d="m497.4 212.5c3.131-0.2662 7.865-0.7597 12.13 0.5124" fill="none" stroke="#000" stroke-width="1px"/>
  <path d="m516 227.9c3.366 3.621 14.47 8.549 19.36 0.9003" fill="none" stroke="#000" stroke-width="1px"/>
  <path d="m512.1 230.4c1.861 4.58 10.49 13.13 17.78 7.713" fill="none" stroke="#000" stroke-width="1px"/>
  <path d="m508.5 230.6c-0.3174 6.632 4.087 10.19 7.802 9.903" fill="none" stroke="#000" stroke-width="1px"/>
  <path d="m503.7 230.2c-1.017 3.857 1.485 8.477 5.21 8.573" fill="none" stroke="#000" stroke-width="1px"/>
  <path d="m496.6 228.8c-0.0952 3.659 3.024 6.555 5.881 6.906" fill="none" stroke="#000" stroke-width="1px"/>
  <path d="m518.9 240c-0.9322 5.193 1.938 8.632 5.835 12.1" fill="none" stroke="#000" stroke-width="1px"/>
  <path d="m517 242.3c-3.479 3.495 0.5588 10.86 3.926 13.69" fill="none" stroke="#000" stroke-width="1px"/>
  <path d="m516 247.8c-3.16 4.344-0.8204 11.28 2.546 14.11" fill="none" stroke="#000" stroke-width="1px"/>
  <path d="m415.3 7.543c28.42 15.51 47.17 49.08 61.05 82.12-7.005 3.158-2.95 11.49-0.4299 17.2" fill="none" stroke="#000" stroke-width="1px"/>
  <path d="m450.1 1.316c5.884 7.212 22.32 14.45 35.41 72.92-5.085 4.261-0.7124 14.73 3.001 18.61" fill="none" stroke="#000" stroke-width="1px"/>
  <path d="m513.5 22.92c5.13 24.67 6.773 44.99-4.201 67.22 6.426 1.966 8.637 7.08 7.202 18.01" fill="none" stroke="#000" stroke-width="1px"/>
  <path d="m506.3 66.14c-0.8953 8.915-3.772 16.4-7.502 20.11" fill="none" stroke="#000" stroke-width="1px"/>
  <path d="m484 13.62c18.48 31.35 14.96 55.72 11.7 64.22" fill="none" stroke="#000" stroke-width="1px"/>
  <path d="m522.5 77.24c-0.9681 6.855-7.116 16.25-7.802 16.81" fill="none" stroke="#000" stroke-width="1px"/>
  <path d="m540.1 39.81c-1.386 10.65-0.3349 37.76-15.27 52.31 2.742 2.332 6.018 9.411 3.393 15.27" fill="none" stroke="#000" stroke-width="1px"/>
  <path d="m542.7 70.07c-0.6496 2.519-5.433 18.28-14.99 26.02" fill="none" stroke="#000" stroke-width="1px"/>
  <path d="m554.9 59.65c-7.012 14.34-10.99 37.02-21.17 42.66 4.552 2.543 7.09 14.27 2.424 21.17" fill="none" stroke="#000" stroke-width="1px"/>
  <path d="m555.1 91c-7.201 5.594-12.36 11.6-17.45 17.61" fill="none" stroke="#000" stroke-width="1px"/>
  <path d="m569.9 88.27c-8.403 9.833-16.93 19.18-25.81 27.09 4.347 2.937 4.901 13.73 0.3636 18.54" fill="none" stroke="#000" stroke-width="1px"/>
  <path d="m552.3 121c3.386-4.302 6.789-8.605 12.54-12.91" fill="#fff" stroke="#000" stroke-width="1px"/>
  <path d="m576.3 108.3c-6.48 4.55-17.35 14.65-24 22.91 4.115 2.576 3.691 10.94-0.5454 15.45" fill="none" stroke="#000" stroke-width="1px"/>
  <path d="m557.9 135.5 16.52-12.23" fill="none" stroke="#000" stroke-width="1px"/>
  <path d="m575.8 130.2c-5.382 4.665-10.6 8.367-16.36 15.29 0 0 2.387 1.864 2.906 3.212 0.3665 0.9514 0.3902 2.117 0 3.059-0.7725 1.865-4.282 4.282-4.282 4.282" fill="none" stroke="#000" stroke-width="1px"/>
  <path d="m574.9 141.2c-6.216 3.235-9.051 6.12-12.39 9.176" fill="none" stroke="#000" stroke-width="1px"/>
  <path d="m584 145.3c-5.366 3.884-11.67 9.223-16.98 12.23 2.144 2.978 1.056 4.973-0.4588 6.423" fill="none" stroke="#000" stroke-width="1px"/>
  <path d="m587.7 158.2c-4.581 3.618-8.822 4.863-13 5.658 0.6274 4.333-0.6543 7.422-5.811 9.176" fill="none" stroke="#000" stroke-width="1px"/>
  <path d="m585.1 153.4c-4.106-0.1054-8.266 3.224-10.4 5.506" fill="none" stroke="#000" stroke-width="1px"/>
  <path d="m483.7 130s-0.48-3.67 1.893-4.732c1.44-0.6443 3.719 0.3602 3.719 0.3602s-1.24-5.179 0.982-5.486c2.865-0.3961 3.518 6.535 3.518 6.535s-0.9206-8.889 2.125-9.094c2.651-0.1786 4.022 5.442 4.022 5.442s1.16-2.996 3.21-2.749c2.759 0.3317 2.705 3.696 2.705 3.696s2.147-1.531 3.786-1.018c2.308 0.7228 2.366 3.384 2.366 3.384l-0.2366 3.549" fill="none" stroke="#000" stroke-width="1px"/>
  <path d="m515.8 133.4c2.253-2.944 8.056-2.143 6.302 6.06 5.595-2.284 7.481 2.97 4.848 9.453" fill="none" stroke="#000" stroke-width="1px"/>
  <path d="m526.2 153.8s5.932-2.171 8.483-0.4848c1.785 1.179 1.697 4.848 1.697 4.848s4.947-0.9354 7.029 0.9695c3.618 3.31 2.666 10.42 2.666 10.42s5.219 0.366 6.302 2.909c1.47 3.452-2.666 4.848-2.666 4.848" fill="none" stroke="#000" stroke-width="1px"/>
  <path d="m556.8 182.6c1.866-0.21 14.46 4.254 3.001 8.079 6.576 0.6735 13.48 6.938 2.308 7.387" fill="none" stroke="#000" stroke-width="1px"/>
  <path d="m568.3 245.9c1.866 0.21 14.46-4.254 3.001-8.079 6.576-0.6735 13.48-6.938 2.308-7.387" fill="none" stroke="#000" stroke-width="1px"/>
  <path d="m562.6 206c5.418-1.32 16.62 2.136 5.078 7.156 4.468-0.2378 13.01 5.098 2.308 6.925 3.052 1.026 6.26 1.896 6.925 5.309" fill="none" stroke="#000" stroke-width="1px"/>
  <path d="m592.7 173.9c-3.471 1.65-7.321 2.923-11.88 3.483 0.776 4.205-0.642 6.442-3.073 7.99" fill="none" stroke="#000" stroke-width="1px"/>
  <path d="m597.2 191.5c-9.381 0.5207-10.18 0.963-14.14 1.434 0 0 5.266 2.613 5.122 5.532-0.0935 1.886-4.302 3.688-4.302 3.688s4.664 1.421 4.507 3.278c-0.1553 1.839-5.736 3.483-5.736 3.483s10.28-0.1452 10.04 2.868c-0.2839 3.492-7.17 4.712-7.17 4.712s10.53 0.5264 10.45 3.278c-0.0805 2.613-10.04 2.868-10.04 2.868s8.802 1.495 8.605 3.893c-0.2101 2.558-8.4 3.278-8.4 3.278s10.16 3.511 8.809 9.424c-0.7376 3.221-9.219 3.073-9.219 3.073s9.757 6.026 7.375 9.629c-2.806 4.246-14.96-2.049-14.96-2.049s3.877 4.335 2.458 5.941c-1.875 2.123-8.195-2.254-8.195-2.254s1.692 4.532 0.2049 5.736c-2.407 1.949-9.014-2.254-9.014-2.254s-1.086 6.476-4.097 6.761c-2.803 0.2648-4.416-2.741-5.532-5.327-0.4095-0.9488-0.4097-3.073-0.4097-3.073" fill="none" stroke="#000" stroke-width="1px"/>
  <path d="m552 267.3s4.678 10.86 8.801 8.625c3.765-2.042-2.288-12.15-2.288-12.15s7.311 9.719 10.74 6.865c3.214-2.678-4.048-10.03-4.048-10.03s8.234 8.9 12.32 5.632c2.884-2.305-4.576-10.56-4.576-10.56s9.029 8.855 12.15 6.161c3.031-2.622-2.288-9.857-2.288-9.857" fill="none" stroke="#000" stroke-width="1px"/>
  <path d="m602.8 204.1c-4.126 1.24-8.253 0.9329-12.38 0.1876" fill="none" stroke="#000" stroke-width="1px"/>
  <path d="m605.2 209.1c-0.9979 0.5148-4.927 1.622-11.44 0.7502" fill="none" stroke="#000" stroke-width="1px"/>
  <path d="m590.4 214.4c5.515-0.5761 10.09-0.2169 14.63 0.1876" fill="none" stroke="#000" stroke-width="1px"/>
  <path d="m595.7 220c3.718 0.8482 7.124 0.8839 11.63 0.1876" fill="none" stroke="#000" stroke-width="1px"/>
  <path d="m594.6 226.9c6.645 2.491 14.93 1.532 17.07 1.688" fill="none" stroke="#000" stroke-width="1px"/>
  <path d="m601.5 235.2c1.834 0.6667 6.633 1.37 11.44 0" fill="none" stroke="#000" stroke-width="1px"/>
  <path d="m596.4 240.5c3.207 0.1653 7.738 1.276 14.44 3.939" fill="none" stroke="#000" stroke-width="1px"/>
  <path d="m597.9 247.4c2.92 0.4492 5.795 0.7603 9.753 4.314" fill="none" stroke="#000" stroke-width="1px"/>
  <path d="m595.7 251.7c3.007 3.065 5.188 5.923 12 9.941" fill="none" stroke="#000" stroke-width="1px"/>
  <path d="m594.7 260.1c3.366 2.644 6.52 5.341 11.82 7.502" fill="none" stroke="#000" stroke-width="1px"/>
  <path d="m585.2 261.5c4.321 3.871 9.37 7.257 15.19 10.13" fill="none" stroke="#000" stroke-width="1px"/>
  <path d="m599.4 281.9c-7.222-4.52-11.9-8.532-16.69-12.57" fill="none" stroke="#000" stroke-width="1px"/>
  <path d="m590 275.2c9.951 12.19 0.1466 10.78-8.541 4.484 0 0 7.895 6.14 5.125 9.182-3.431 3.767-12.81-4.911-12.81-4.911s11.83 8.473 7.473 9.609c-13.16 3.432-21.57-17.51-21.57-17.51" fill="none" stroke="#000" stroke-width="1px"/>
  <path d="m582.7 280.6c-2.289-1.915-3.323-2.854-10.46-8.541" fill="none" stroke="#000" stroke-width="1px"/>
  <path d="m574.2 284.4c-6.2-6.142-8.138-10.71-9.822-15.16" fill="none" stroke="#000" stroke-width="1px"/>
  <path d="m587.4 287.4c7.803 7.592 9.926 13.51 17.94 16.87 1.35-8.963-0.3158-11.14-1.068-15.37" fill="none" stroke="#000" stroke-width="1px"/>
  <path d="m521.9 289.6s3.137 0.9116 3.999-0.2222c2.167-2.849-5.11-9.776-5.11-9.776s7.124 7.634 9.776 5.332c2.671-2.319-3.111-9.998-3.111-9.998s7.872 8.837 11.33 5.999c3.06-2.511-3.111-10.44-3.111-10.44" fill="none" stroke="#000" stroke-width="1px"/>
  <path d="m525.2 294.1s4.303 4.272 6.888 2.444c2.625-1.856-2.888-11.11-2.888-11.11s4.86 10.65 9.11 7.999c2.657-1.66-1.111-11.78-1.111-11.78s4.184 9.814 7.332 8.221c2.778-1.406 0.4444-7.999 0.4444-7.999" fill="none" stroke="#000" stroke-width="1px"/>
  <path d="m541.9 271.2c-1.257 8.283 6.629 15.08 9.776 15.11" fill="none" stroke="#000" stroke-width="1px"/>
  <path d="m540.4 267.4c0.9235 2.752 0.9486 5.593 7.554 7.776" fill="none" stroke="#000" stroke-width="1px"/>
  <path d="m529.7 300.9s8.318 8.144 10.89 5.777c2.498-2.303-1.777-9.11-1.777-9.11s6.56 9.21 10.22 6.221c3.74-3.054-3.777-12.22-3.777-12.22s5.448 9.537 9.332 7.332c3.134-1.779-0.8887-9.332-0.8887-9.332" fill="none" stroke="#000" stroke-width="1px"/>
  <path d="m558.6 287.8s12.05 10.87 8.002 12.6c-3.155 1.348-11.17-6.599-11.17-6.599s10.32 8.766 7.421 12.05c-2.896 3.274-10.8-6.81-10.8-6.81s7.569 8.597 4.156 11.24c-4.271 3.303-10.21-6.129-10.21-6.129s4.717 9.151 1.702 11.24c-3.98 2.752-9.363-3.064-9.363-3.064" fill="none" stroke="#000" stroke-width="1px"/>
  <path d="m565.7 300.2s9.719 8.584 6.299 12.09c-3.093 3.169-9.874-6.469-9.874-6.469s4.882 7.371 2.213 9.363c-2.792 2.084-8.342-3.745-8.342-3.745s1.406 5.464-1.021 7.15c-2.546 1.768-7.491-3.235-7.491-3.235" fill="none" stroke="#000" stroke-width="1px"/>
  <path d="m553.1 318.6s5.782 7.573 10.04 5.107c3.364-1.946-1.362-8.172-1.362-8.172s4.786 8.037 8.172 5.959c2.799-1.718-0.8512-9.193-0.8512-9.193s2.875 9.534 7.321 10.38c4.48 0.8579 5.107-2.554 5.107-2.554" fill="none" stroke="#000" stroke-width="1px"/>
  <path d="m572.7 311.4c5.26 3.557 7.501 13.83 16.05 8.027" fill="none" stroke="#000" stroke-width="1px"/>
  <path d="m581.7 292.4c3.932 3.757 11.47 11.53 18.39 8.172" fill="none" stroke="#000" stroke-width="1px"/>
  <path d="m575.3 293.2c5.799 6.069 7.896 8.563 16.68 7.321" fill="none" stroke="#000" stroke-width="1px"/>
  <path d="m565 289.3c2.48 5.539 10.75 14.79 18.22 10.9" fill="none" stroke="#000" stroke-width="1px"/>
  <path d="m575.6 301.5c-1.304 5.236 1.626 7.461 5.979 6.464" fill="none" stroke="#000" stroke-width="1px"/>
  <path d="m581.6 302.8c-1.849 4.418 1.163 8.787 4.363 7.11" fill="none" stroke="#000" stroke-width="1px"/>
  <path d="m586.2 304s-1.433 6.544 1.454 7.595c2.633 0.9577 4.04-5.817 4.04-5.817s-2.434 11.23 1.939 12.77c2.684 0.9408 2.909-5.656 2.909-5.656" fill="none" stroke="#000" stroke-width="1px"/>
  <path d="m559.1 323.6c4.784 6.007 11.94 7.904 14.54 6.396 1.947-1.129 0.8691-4.244-3.091-8.543" fill="none" stroke="#000" stroke-width="1px"/>
  <path d="m558.2 323.1c0.3167 7.301-0.0355 16.81 3.399 16.82 4.387 4e-3 4.458-6.898 4.851-10.62" fill="none" stroke="#000" stroke-width="1px"/>
  <path d="m574.1 329.7c-0.287 6.321-0.5286 11.27-3.091 11.66-4.346 0.6691-4.391-6.022-4.851-9.612" fill="none" stroke="#000" stroke-width="1px"/>
  <path d="m561.3 339.5s-1.102 12.51 3.6 12.96c4.384 0.4198 5.143-11.21 5.143-11.21" fill="none" stroke="#000" stroke-width="1px"/>
  <path d="m563.4 352.1s-1.592 22.01 4.336 20.96c6.402-1.134 0.7496-23.48 0.7496-23.48" fill="none" stroke="#000" stroke-width="1px"/>
  <path d="m558.5 334.8c-0.2228 4.251-1.655 7.447-3.557 7.722" fill="none" stroke="#000" stroke-width="1px"/>
  <path d="m562 348.8c-0.2228 4.868-4.021 10.33-5.923 7.208" fill="none" stroke="#000" stroke-width="1px"/>
  <path d="m563.5 364.3c-0.2228 4.868-2.478 10.64-5.203 7.208" fill="none" stroke="#000" stroke-width="1px"/>
  <path d="m564.6 370s1.108 18.3 5.352 17.73c5.014-0.6658 0.5248-18.1 0.5248-18.1" fill="none" stroke="#000" stroke-width="1px"/>
  <path d="m573.7 336.1s0.8452 5.074 4.304 5.086c3.136 0.0109 3.201-5.684 3.201-5.684" fill="none" stroke="#000" stroke-width="1px"/>
  <path d="m579.2 322.3 1.991 13.54s1.551 4.406 4.579 3.783c2.699-0.5557 1.991-5.376 1.991-5.376" fill="none" stroke="#000" stroke-width="1px"/>
  <path d="m575.6 340.2s-0.977 11.93 4.415 13.37c5.186 1.385 0.3896-14.28 0.3896-14.28" fill="none" stroke="#000" stroke-width="1px"/>
  <path d="m576.9 350.8s1.162 8.638-1.428 9.868c-2.299 1.092-5.843-5.973-5.843-5.973" fill="none" stroke="#000" stroke-width="1px"/>
  <path d="m575.7 360c2.859 5.896 6.142 20.05 1.818 22.59-2.587 1.521-5.843-7.012-5.843-7.012" fill="none" stroke="#000" stroke-width="1px"/>
  <path d="m577.3 364.7c7.572 8.054 5.305-6.773 4.545-11.82" fill="none" stroke="#000" stroke-width="1px"/>
  <path d="m586.9 329 0.8368 6.025s2.48 7.27 5.69 6.862c2.734-0.348 3.012-6.694 3.012-6.694s8e-3 5.459 1.339 7.699c1.055 1.775 2.994 4.748 4.853 3.849 1.858-0.8981 0-7.364 0-7.364" fill="none" stroke="#000" stroke-width="1px"/>
  <path d="m585.2 315.2c0.2823 4.748 6.415 5.851 7.999 3.151" fill="none" stroke="#000" stroke-width="1px"/>
  <path d="m637.5 351.9c2.055 6.084 8.443 12.34 15.05 6.38" fill="none" stroke="#000" stroke-width="1px"/>
  <path d="m628.8 353.7c1.55 5.494 9.247 15.13 16.45 6.767" fill="none" stroke="#000" stroke-width="1px"/>
  <path d="m620.8 353.6c-0.4935 6.403 4.074 17.44 15.85 9.718" fill="none" stroke="#000" stroke-width="1px"/>
  <path d="m611.3 349.3c-0.4749 8.054 1.805 21.81 16.67 16.54" fill="none" stroke="#000" stroke-width="1px"/>
  <path d="m593.4 341.8c0.9135 4.894 1.664 15.89-2.124 16.72-4.447 0.9843-8.893-9.822-8.893-9.822" fill="none" stroke="#000" stroke-width="1px"/>
  <path d="m593.8 347.3c3.312 8.434 7.398 7.082 8.76-0.3982" fill="none" stroke="#000" stroke-width="1px"/>
  <path d="m612.8 359.6s-1.333 4.385-3.717 3.849c-5.174-1.162-3.849-11.95-3.849-11.95s-1.386 6.245-4.38 5.973c-1.718-0.1559-1.991-4.778-1.991-4.778" fill="none" stroke="#000" stroke-width="1px"/>
  <path d="m643.8 361.3c11.85 15.96 24.55 30.51 44.09 51.71" fill="none" stroke="#000" stroke-width="1px"/>
  <path d="m635 364.3c12.74 16.26 26.82 34 42.01 57.02" fill="none" stroke="#000" stroke-width="1px"/>
  <path d="m665.3 430.3c-14.01-32.9-26.6-51.15-38.78-65.1" fill="none" stroke="#000" stroke-width="1px"/>
  <path d="m652.6 435.4c-9.587-32.15-20.58-49.53-32.55-68.56" fill="none" stroke="#000" stroke-width="1px"/>
  <path d="m637.6 437c-8.46-41.89-16.56-59.74-25.62-75.02" fill="none" stroke="#000" stroke-width="1px"/>
  <path d="m622.8 438.9c-0.9389-46.63-10.56-66.54-16.16-76.87" fill="none" stroke="#000" stroke-width="1px"/>
  <path d="m607.8 438.9c1.761-39.7-1.029-71.58-4.848-83.1" fill="none" stroke="#000" stroke-width="1px"/>
  <path d="m601.3 356.9c4.938 41.98 1.686 73.04-0.4617 80.1" fill="none" stroke="#000" stroke-width="1px"/>
  <path d="m616.3 437.5c-1.866-25.56-0.9874-51.6-9.695-75.95" fill="none" stroke="#000" stroke-width="1px"/>
  <path d="m609.4 362.9c14.03 23.06 15.56 46.3 20.31 71.1" fill="none" stroke="#000" stroke-width="1px"/>
  <path d="m615.7 364.1c11.69 19.39 18.85 38.94 25.62 63.25" fill="none" stroke="#000" stroke-width="1px"/>
  <path d="m623.3 366.6c12.11 16.67 21.51 33.73 29.32 51.02" fill="none" stroke="#000" stroke-width="1px"/>
  <path d="m631.8 365.2c12.86 15.31 22.14 30.62 31.39 45.94" fill="none" stroke="#000" stroke-width="1px"/>
  <path d="m640.1 363.2c5.711 8.247 12.31 17.22 24.7 30.93" fill="none" stroke="#000" stroke-width="1px"/>
  <path d="m648.7 360.4c6.487 8.463 11.05 14.61 18.47 21.7" fill="none" stroke="#000" stroke-width="1px"/>
  <path d="m598.8 383.5c0.8777-8.171 1.193-17.47 0.2308-29.32" fill="none" stroke="#000" stroke-width="1px"/>
  <g transform="translate(0 .7041)">
   <path d="m513.8 280.2c-3.329 0-6.031 2.702-6.031 6.031 0 3.066 2.288 5.587 5.25 5.969l-4.781 14.09-18.03-0.0937 14.47 10.56-5.656 16.84 14.66-10.28 14.53 10.47-5.406-16.88 14.59-10.38-17.97-0.1563-4.625-14.22c2.855-0.4758 5.031-2.948 5.031-5.938 0-3.329-2.702-6.031-6.031-6.031zm0 3.062c1.585 0 2.906 1.264 2.906 2.969s-1.302 2.969-2.906 2.969-2.875-1.264-2.875-2.969 1.29-2.969 2.875-2.969z" fill="#fcd116" stroke="#1a1a1a"/>
   <path transform="matrix(1.183 -.03565 .0362 1.165 -77.3 -9.348)" d="m498.6 304.3-8.191-6.705-8.522 6.15 3.846-9.862-8.482-6.205 10.57 0.6101 3.28-9.985 2.685 10.24 10.51 0.0339-8.908 5.718z" fill="#1a1a1a"/>
  </g>
  <path d="m531.8 221.5c2.146 25.94-17.47 32.61-20.19 47.31-1.023 5.542-0.6947 9.495 2.219 15.12-0.6393-29.76 26.24-21.99 25.31-55.69-2.446-2.501-4.94-4.795-7.344-6.75z" fill="#ce1126"/>
  <path d="m513.8 283.9c2.568-2.43 5.021-5.264 8.375-7.812 11.14-8.466 24.88-13.42 30.34-29.66-1.526-3.113-3.461-6.213-5.656-9.188-2.175 25.37-24.27 24.51-33.06 46.66z" fill="#006b3f"/>
  <path d="m539.1 228.2c2.73 2.79 5.39 5.86 7.76 9.073-2.175 25.37-24.26 24.51-33.05 46.66-0.6396-29.77 26.24-22 25.29-55.73z" fill="#fcd116" stroke="#000" stroke-width="1px"/>
  <path d="m531.8 221.5c7.561 6.151 16.11 15.49 20.75 24.96-5.468 16.24-19.21 21.19-30.35 29.65-3.354 2.549-5.795 5.401-8.363 7.83-2.913-5.63-3.24-9.579-2.217-15.12 2.714-14.7 22.32-21.39 20.18-47.32z" fill="none" stroke="#000" stroke-width="1px"/>
 </g>
 <path d="m416 592.2c1.928-1.008 3.711-2.636 4.614-4.614 1.888-4.134 0.6441-6.816 1.943-11.17 5.004-11.54 13.2-24.76 6.557-34 6.928 21.91-48.31 21.13-69.1 21.13s-76.03 0.7844-69.1-21.13c-6.644 9.239 1.553 22.46 6.557 34 1.299 4.355 0.055 7.037 1.943 11.17 0.9035 1.979 2.687 3.607 4.614 4.614 19.3 6.345 36.57 7.043 55.99 7.043s36.69-0.6984 55.99-7.043z" fill="#fcd116" stroke="#000" stroke-width="1.5"/>
 <path d="m264.5 499.2c-0.5254 0.0204-1.085 0.0768-1.625 0.1562-4.563 0.6716-7.669 3.445-8.938 8-0.404 1.451-0.508 4.298-0.2188 5.844 0.9253 4.947 4.112 8.25 8.781 9.094 1.918 0.3466 4.728 0.17 6.5-0.4062 4.805-1.563 7.773-6.533 7.281-12.25-0.2333-2.715-1.114-4.913-2.75-6.844-2.087-2.462-5.354-3.736-9.031-3.594zm216.1 0.7188c-2.198-0.024-3.632 0.3032-5.094 1.156-1.943 1.134-3.071 3.056-3.219 5.469-0.1588 2.595 0.8704 4.612 2.969 5.781 1.061 0.5912 1.82 0.7904 5 1.375 3.893 0.7155 4.627 0.9289 5.188 1.594 0.7755 0.9204 0.1651 2.695-1.188 3.438-1.929 1.057-4.869 0.9021-7.75-0.4375-1.789-0.8318-2.811-1.836-2.906-2.812-0.024-0.2434-0.1488-0.5003-0.25-0.5625-0.159-0.098-0.3196 0.2462-1.375 2.531-0.6709 1.453-1.194 2.712-1.156 2.781 0.0855 0.1587 0.4602 0.1765 0.5625 0.0312 0.1477-0.2092 0.504-0.064 1.969 0.75 1.656 0.9202 3.206 1.561 4.562 1.875 3.252 0.7532 7.043 0.2701 9.219-1.156 3.191-2.092 3.87-7.115 1.375-9.938-1.279-1.447-2.82-2.056-7.219-2.875-3.188-0.5936-3.756-0.7352-4.219-1.094-0.8572-0.6638-0.9851-1.473-0.4375-2.438 0.3952-0.6965 0.9278-1.101 1.938-1.438 0.5958-0.1972 0.822-0.2051 2.625-0.0937 1.947 0.1204 2.028 0.1325 3.062 0.5625 1.915 0.7959 3.608 2.197 3.562 2.938-0.0211 0.3443 0.2537 0.619 0.4375 0.4375 0.0468-0.0462 0.6528-1.174 1.344-2.5 1.143-2.195 1.246-2.421 1.094-2.594-0.1525-0.1731-0.2036-0.1932-0.4062-0.0312-0.3323 0.2656-0.703 0.1977-1.656-0.3125-3.33-1.782-5.401-2.409-8.031-2.438zm-241.1 0.6562c-0.7832-0.0429-2.194 0.0743-7.281 0.5l-7 0.5938 0.0312 0.25c0.0128 0.1426 0.1596 0.2479 0.3438 0.3125 0.6599 0.2326 0.579-0.1193 1.531 10.5 0.5344 5.959 0.863 9.915 0.8125 10.09-0.0454 0.162-0.257 0.385-0.4375 0.5-0.2314 0.1473-0.299 0.2711-0.2812 0.4688v0.2812l5.781-0.5312c7.682-0.6909 8.996-0.9244 10.88-2.062 0.6383-0.3867 1.069-0.7344 1.844-1.656 0.9034-1.075 1.001-1.329 1.469-2.562 0.2828-0.7451 0.5934-1.666 0.6562-2.062 0.471-2.96 0.0565-6.546-1-8.969-1.407-3.228-3.563-5.038-6.656-5.562-0.236-0.04-0.4264-0.0795-0.6875-0.0937zm205.1 0.0312c-0.4037 0.0149-0.4556 0.0473-0.4688 0.1562-0.0159 0.1335 0.1244 0.2953 0.3125 0.4062 0.1736 0.1024 0.3564 0.2837 0.4062 0.4062 0.0595 0.1457-0.2064 2.658-0.75 7.219-0.4899 4.111-0.8458 7.336-0.8438 7.906 3e-3 1.255 0.2024 2.558 0.5 3.281 0.71 1.726 2.939 3.057 5.812 3.531 1.116 0.1857 4.013 0.3198 5.156 0.2188 3.315-0.2932 5.672-1.499 6.844-3.438 0.9372-1.551 0.8976-1.38 2-10.03l1-7.844 0.3125-0.2812c0.1691-0.1547 0.4122-0.3116 0.5312-0.3438 0.1187-0.0324 0.2348-0.1605 0.25-0.2812 0.0252-0.2115-0.1031-0.2137-2.938-0.3125-2.881-0.1005-2.942-0.1001-2.969 0.125-0.0166 0.1395 0.0894 0.2738 0.25 0.3438 0.6328 0.2759 0.6363 0.0171-0.3438 7.938-0.8949 7.226-0.8888 7.252-1.219 7.875-0.1822 0.3436-0.5387 0.8205-0.7812 1.062-0.4842 0.4831-1.556 1.035-2.375 1.219-0.8766 0.1966-2.407 0.2389-3.531 0.0937-2.391-0.309-3.709-1.363-4-3.156-0.0981-0.6045-0.0174-1.513 0.6562-7.5 0.5225-4.646 0.7901-6.944 0.9062-7.219 0.1187-0.2817 0.2985-0.4848 0.5938-0.625 0.2389-0.1134 0.4552-0.2615 0.4688-0.375 0.0226-0.1895-0.1884-0.2112-3.094-0.3125-1.513-0.0527-2.284-0.0774-2.688-0.0625zm-12.47 0.4063c-2.904 0.0188-3.109 0.034-3.125 0.2188-9e-3 0.1096 0.127 0.3136 0.3125 0.4375 0.1856 0.1237 0.3754 0.3445 0.4375 0.5 0.1402 0.3464-1.231 13.48-1.562 14.97-0.2422 1.088-0.5749 1.697-1.219 2.188-0.6977 0.5322-1.452 0.7228-2.719 0.7188-2.563-6e-3 -5.096-1.222-4.969-2.406 0.029-0.2693-0.0438-0.4506-0.1875-0.5312-0.1144-0.0631-0.2169-0.0787-0.25-0.0312-0.1007 0.1442-2.362 5.471-2.375 5.594-0.0256 0.238 0.3145 0.236 0.6562 0 0.4685-0.3234 1.009-0.2581 2.875 0.3438 0.7853 0.2532 1.856 0.5437 2.375 0.6562 1.186 0.2574 3.076 0.2757 4.281 0.0312 1.985-0.4024 3.773-1.549 4.688-3 0.9555-1.518 0.9756-1.556 1.969-10.38 0.4893-4.344 0.9212-8.012 0.9688-8.156 0.0479-0.144 0.2693-0.3706 0.5-0.5 0.2448-0.1372 0.4552-0.3115 0.4688-0.4375 0.0224-0.2082-0.1276-0.2386-3.125-0.2188zm-148.8 0.0625c-0.0691 0.0223-0.0854 0.069-0.0937 0.125-0.0203 0.1365 0.0657 0.2892 0.2188 0.375 0.6237 0.3503 0.6817-0.2012-0.9375 10.69l-1.469 9.969-0.4062 0.25c-0.2138 0.1319-0.443 0.2268-0.5 0.2188-0.0569-8e-3 -0.1019 0.0945-0.125 0.25l-0.0625 0.2812 2.906 0.4062c2.851 0.3937 2.902 0.4158 2.969 0.1875 0.0514-0.1715-2e-3 -0.2886-0.25-0.4375-0.6327-0.3792-0.6578-0.2993 0.4688-7.875 0.6087-4.094 1.074-6.854 1.125-6.781 0.047 0.067 1.164 3.678 2.5 8 1.336 4.322 2.468 7.84 2.5 7.844 0.0333 4e-3 2.258-3.089 4.938-6.875l4.875-6.875-1 6.938c-0.6379 4.417-1.057 7.041-1.156 7.219-0.0858 0.1533-0.33 0.3282-0.5312 0.4062-0.236 0.0913-0.382 0.2432-0.4062 0.4062l-0.0312 0.25 3.031 0.4375 3.031 0.4688 0.0312-0.2812c0.0292-0.1962-0.0584-0.3395-0.2812-0.5-0.1736-0.1254-0.3392-0.367-0.375-0.5312-0.1018-0.4684 2.775-19.65 3-20 0.0979-0.1512 0.3446-0.311 0.5312-0.375 0.1982-0.068 0.3558-0.2144 0.375-0.3438 0.0324-0.218-0.0693-0.2432-3.688-0.7812-3.526-0.5244-3.721-0.5404-3.75-0.3438-0.0169 0.114 0.1046 0.281 0.25 0.375 0.3459 0.2247 0.424 0.6691 0.2188 1.125-0.2568 0.5702-7.394 10.81-7.469 10.72-0.0373-0.0469-0.9126-2.829-1.938-6.156-2.051-6.659-2.058-6.745-1.344-7.125 0.2056-0.1097 0.3896-0.2943 0.4062-0.4062 0.0285-0.1919-0.1668-0.2438-3.781-0.7812-2.822-0.4196-3.574-0.5355-3.781-0.4688zm-66 1.312c-0.1372 0.0211-0.2432 0.191-0.3125 0.5-0.0862 0.3828-0.1598 0.4714-0.5 0.625-0.2788 0.1256-3.268 0.6323-9.094 1.531-8.563 1.321-8.69 1.343-8.656 1.562 0.0204 0.132 0.1916 0.2716 0.4062 0.3438 0.1982 0.0666 0.418 0.2033 0.5 0.3125 0.0984 0.1317 0.6696 3.556 1.688 10.16l1.531 9.938-0.3125 0.3438c-0.1652 0.1894-0.3494 0.3348-0.4062 0.3438-0.0573 9e-3 -0.0863 0.1579-0.0625 0.3125l0.0625 0.2812 9.156-1.406c8.964-1.382 9.156-1.434 9.406-1.25 0.141 0.1031 0.3114 0.3187 0.375 0.4688 0.0726 0.1714 0.1789 0.2706 0.3125 0.25 0.2044-0.0315 0.2029-0.172-0.2188-2.906-0.4301-2.789-0.4689-2.846-0.6875-2.812-0.1233 0.019-0.201 0.0997-0.1875 0.1875 0.0136 0.0879-0.0884 0.3165-0.2188 0.5312l-0.2188 0.4062-6.562 1-6.562 1.031-0.9375-6.062 4.156-0.6562c2.767-0.4268 4.243-0.6199 4.406-0.5625 0.1352 0.0475 0.348 0.24 0.4688 0.4375 0.1455 0.2378 0.2896 0.3666 0.4375 0.3438 0.2151-0.0332 0.2017-0.1172-0.2188-2.844-0.4205-2.727-0.4396-2.815-0.6562-2.781-0.1478 0.0228-0.2454 0.1665-0.3125 0.4375-0.056 0.2249-0.1979 0.4764-0.3125 0.5625-0.1383 0.1039-1.606 0.3855-4.375 0.8125l-4.156 0.6562-0.75-5.25 6.188-0.9688c3.869-0.6149 6.307-0.9786 6.5-0.9375 0.1698 0.0362 0.4249 0.2357 0.5625 0.4375 0.1502 0.2204 0.3462 0.3626 0.4688 0.3438 0.1921-0.0296 0.1651-0.2147-0.25-2.906-0.418-2.71-0.4598-2.843-0.6562-2.812zm280.2 0.375c-0.1545 0.0276-0.2255 0.3869-0.6562 2.812-0.4977 2.803-0.5069 2.866-0.2812 2.906 0.1552 0.0276 0.2857-0.0666 0.4062-0.2812 0.3326-0.5934 0.5374-0.5836 4 0.0312l3.156 0.5312-1.531 8.562c-0.9189 5.175-1.561 8.653-1.656 8.812-0.0863 0.1444-0.3266 0.3114-0.5312 0.375-0.2619 0.0815-0.4028 0.2109-0.4375 0.4062l-0.0312 0.2812 3 0.5312 3.031 0.5312 0.0625-0.2812c0.0306-0.1725-0.0552-0.3056-0.1875-0.375-0.1146-0.0602-0.2783-0.2566-0.375-0.4375-0.1735-0.3236-0.1387-0.445 1.375-8.969l1.531-8.656 3.125 0.5312c2.129 0.3782 3.197 0.6274 3.375 0.75 0.1458 0.1004 0.3052 0.3403 0.3438 0.5625 0.0509 0.2942 0.1223 0.435 0.3125 0.4688l0.2812 0.0312 0.5-2.844c0.4923-2.772 0.4971-2.868 0.2812-2.906-0.1449-0.0257-0.2962 0.093-0.4375 0.3125-0.445 0.6918 0.2002 0.7407-9.25-0.9375-9.45-1.678-8.852-1.51-9.031-2.312-0.0571-0.2547-0.1676-0.4118-0.3125-0.4375-0.0268-5e-3 -0.0404-4e-3 -0.0625 0zm-232.7 0.2812c0.6766 2e-3 1.341 0.043 1.781 0.1562 2.466 0.633 4.254 2.515 4.969 5.219 0.3362 1.274 0.3348 3.498 0 4.75-0.7033 2.63-2.606 4.709-4.844 5.25-3.095 0.7492-5.891-0.3166-7.562-2.875-1.729-2.646-1.713-6.892 0.0312-9.5 0.9659-1.444 2.302-2.433 3.844-2.844 0.4156-0.1098 1.105-0.1584 1.781-0.1562zm-26.56 1.312c0.7795 0.036 1.218 0.1886 1.812 0.4688 1.228 0.5793 2.343 1.989 2.906 3.688 0.4024 1.213 0.6878 4.441 0.5 5.656-0.3726 2.409-1.516 3.972-3.469 4.75-0.4447 0.1772-1.355 0.294-4.25 0.5938l-3.688 0.375-0.6875-7.531-0.6562-7.562 3.625-0.25c1.991-0.1513 3.127-0.2235 3.906-0.1875zm-44.66 2.875c-0.1454 0.0231-0.2507 0.1839-0.3125 0.4375-0.1943 0.7976 0.4511 0.6284-9.344 2.219-8.813 1.429-8.91 1.434-8.875 1.656 0.0209 0.132 0.1612 0.2621 0.3438 0.3125 0.6742 0.1873 0.6106-0.1553 2.281 10.38 0.9374 5.909 1.507 9.818 1.469 10-0.0344 0.1647-0.2024 0.4042-0.375 0.5312-0.2212 0.1627-0.2811 0.304-0.25 0.5l0.0312 0.2812 9.031-1.438c6.263-0.9935 9.142-1.403 9.312-1.344 0.135 0.047 0.3472 0.2405 0.4688 0.4375 0.1466 0.2372 0.2898 0.3672 0.4375 0.3438 0.2149-0.0341 0.1912-0.1256-0.25-2.906-0.4411-2.781-0.4398-2.847-0.6562-2.812-0.1478 0.0234-0.2778 0.1662-0.3438 0.4375-0.0546 0.2251-0.1674 0.476-0.2812 0.5625-0.1418 0.1063-2.274 0.4873-6.688 1.188l-6.469 1-0.4688-3-0.4688-3.031 4.188-0.6875 4.188-0.6562 0.25 0.2188c0.1492 0.1186 0.342 0.3364 0.4062 0.4688 0.0685 0.141 0.2161 0.2078 0.3438 0.1875 0.209-0.0331 0.1781-0.1454-0.25-2.844-0.4248-2.677-0.4536-2.782-0.6562-2.75-0.1324 0.021-0.2026 0.133-0.2188 0.3125-0.0141 0.1587-0.1356 0.416-0.25 0.5625-0.2015 0.2571-0.3548 0.2635-4.406 0.9062l-4.188 0.6875-0.4062-2.656-0.4062-2.625 6.219-1c4.473-0.7096 6.312-0.967 6.531-0.9062 0.1706 0.0472 0.3909 0.2402 0.5 0.4375 0.1443 0.2614 0.2467 0.3428 0.4375 0.3125l0.2812-0.0312-0.4688-2.875c-0.4411-2.781-0.471-2.847-0.6875-2.812zm330.9 1.344c-0.0599 0.0227-0.0865 0.0722-0.0937 0.125-0.017 0.1232 0.108 0.3314 0.2812 0.4688 0.169 0.134 0.3364 0.4023 0.375 0.5938 0.1054 0.5297-2.551 19.57-2.781 19.94-0.0963 0.1523-0.314 0.309-0.5 0.375-0.2326 0.0822-0.3486 0.2149-0.375 0.4062l-0.0312 0.2812 3.031 0.4375 3.031 0.4062 0.0625-0.2812c0.0271-0.1961-0.0419-0.3408-0.2188-0.4375-0.6274-0.3435-0.6774 0.207 0.8125-10.59 0.9059-6.567 1.403-9.961 1.5-10.09 0.0804-0.1104 0.303-0.2428 0.5-0.3125 0.2139-0.0755 0.388-0.211 0.4062-0.3438 0.0296-0.2144-0.0801-0.2491-3.031-0.6562-2.201-0.3036-2.789-0.3807-2.969-0.3125zm22 3.844c-1.969 0.1033-3.859 0.6362-5.344 1.562-2.967 1.85-5.02 5.531-5.25 9.406-0.3459 5.812 2.758 10.4 8.031 11.84 1.093 0.3 3.512 0.5722 4.656 0.5312 1.707-0.0613 2.98-0.4384 5.844-1.719 0.8925-0.399 1.71-0.7004 1.812-0.6875 0.1024 0.0129 0.2781 0.1027 0.4062 0.2188 0.1849 0.1671 0.2621 0.1858 0.4062 0.0937 0.1585-0.1011 0.1773-0.1392 0.0312-0.4688-0.0922-0.2084-0.5964-1.319-1.094-2.469-0.7542-1.744-0.929-2.098-1.094-2.031-0.1287 0.0523-0.2042 0.2306-0.25 0.5312-0.1195 0.7909-0.9663 1.434-2.844 2.125-1.864 0.6859-3.686 0.8022-5.625 0.375-2.748-0.6056-4.612-2.204-5.5-4.75-0.4231-1.212-0.4854-2.06-0.2812-3.75 0.2182-1.796 0.4044-2.377 1.25-3.688 1.067-1.653 2.614-2.691 4.531-3.094 0.8012-0.1683 1.145-0.1915 2.5-0.0625 1.33 0.1262 1.754 0.2286 2.562 0.5312 1.134 0.4249 2.283 1.108 3.281 1.969 0.8955 0.7722 1.202 1.281 1.156 1.906-0.0217 0.2981 0.0466 0.5443 0.1562 0.625 0.1443 0.1064 0.4376-0.2281 1.812-2 1.391-1.793 1.615-2.134 1.5-2.281-0.1147-0.1478-0.197-0.1583-0.4375-0.0312-0.1561 0.0829-0.3529 0.1395-0.4688 0.125-0.1158-0.0145-0.9747-0.638-1.906-1.375-0.9316-0.737-2.056-1.559-2.5-1.812-2.133-1.219-4.812-1.758-7.344-1.625zm-382.3 2.125c-0.8312 0.0657-2.587 0.3494-7.719 1.281l-7.625 1.406 0.0312 0.25c0.0255 0.1368 0.1532 0.2207 0.3125 0.25 0.148 0.027 0.3831 0.1364 0.5312 0.25 0.2659 0.2029 0.3091 0.3593 2.094 9.938 0.9976 5.354 1.797 9.883 1.781 10.06-0.0186 0.2094-0.1795 0.4599-0.4062 0.625-0.3253 0.2369-0.403 0.5084-0.1875 0.6562 0.0481 0.0313 1.445-0.1928 3.094-0.5l3-0.5625-0.0312-0.2812c-0.0321-0.1726-0.1329-0.2629-0.2812-0.2812-0.1284-0.0159-0.3771-0.1152-0.5312-0.25-0.2702-0.2358-0.3027-0.4138-1-4.156l-0.7188-3.906 2.594-0.4688 2.594-0.5 2.625 2.969c3.293 3.68 3.53 3.942 3.438 4.312-0.0386 0.1545-0.2266 0.3379-0.375 0.4062-0.1953 0.0897-0.2549 0.212-0.2188 0.4062l0.0625 0.25 3.562-0.6875c3.435-0.6696 3.508-0.7247 3.469-0.9375-0.0288-0.1545-0.1471-0.1911-0.4375-0.2188-0.2263-0.0215-0.6442-0.2285-0.9375-0.4375-0.449-0.3195-6.244-6.469-6.531-6.938-0.0723-0.118 0.1112-0.2377 0.6562-0.5 1.124-0.541 2.002-1.296 2.562-2.156 0.9285-1.425 1.111-2.703 0.7188-4.812-0.6319-3.397-2.402-5.166-5.5-5.469-0.1584-0.0154-0.348-0.0219-0.625 0zm403.8 3.062c-0.1567 5e-3 -0.1782 0.0402-0.1875 0.0937-0.0227 0.1302 0.0966 0.2973 0.2812 0.4375 0.1704 0.1296 0.3436 0.3974 0.375 0.5625 0.0356 0.1831-0.6265 4.087-1.656 10-1.822 10.45-1.749 10.13-2.406 10.31-0.2259 0.0639-0.3423 0.1562-0.375 0.3438l-0.0312 0.2812 9.094 1.594 9.125 1.594 0.1875 0.3125c0.0972 0.1807 0.1687 0.4374 0.1875 0.5625 0.0168 0.1247 0.131 0.2293 0.25 0.25 0.2085 0.0363 0.2403-0.0656 0.7188-2.812 0.483-2.774 0.4972-2.837 0.2812-2.875-0.1474-0.0257-0.2873 0.0772-0.4375 0.3125-0.125 0.1952-0.3639 0.3926-0.5 0.4375-0.1686 0.0547-2.285-0.2645-6.688-1.031l-6.438-1.125 1.062-6.062 4.188 0.75 4.188 0.7188 0.1875 0.2812c0.1042 0.1596 0.2076 0.4164 0.2188 0.5625 0.0117 0.1588 0.0919 0.2904 0.2188 0.3125 0.2037 0.0355 0.2536-0.1106 0.7188-2.781 0.4651-2.671 0.4834-2.809 0.2812-2.844-0.1328-0.0231-0.2682 0.0801-0.3438 0.25-0.0661 0.1486-0.232 0.3369-0.375 0.4375-0.2493 0.1762-0.4379 0.1708-4.469-0.5312l-4.188-0.7188 0.4375-2.656 0.4688-2.625 6.219 1.094c4.404 0.767 6.286 1.125 6.469 1.25 0.1415 0.0969 0.2816 0.3698 0.3438 0.5938 0.0713 0.2572 0.2054 0.4134 0.3438 0.4375 0.2108 0.0367 0.2385-0.0553 0.7188-2.812 0.4831-2.774 0.4972-2.869 0.2812-2.906-0.145-0.0253-0.2969 0.0925-0.4375 0.3125-0.4421 0.6917 0.2196 0.7297-9.562-0.9375-6.546-1.117-8.28-1.389-8.75-1.375zm-422.8 0.09375c-0.137 0.0225-0.2463 0.1903-0.3125 0.5-0.0823 0.3836-0.1614 0.4992-0.5 0.6562-0.2774 0.1283-3.254 0.6742-9.031 1.625-8.494 1.398-8.598 1.406-8.562 1.625 0.0217 0.1318 0.1908 0.2738 0.4062 0.3438 0.1988 0.0646 0.4169 0.2042 0.5 0.3125 0.0997 0.1307 0.704 3.515 1.781 10.06 1.601 9.732 1.615 9.866 1.438 10.19-0.0987 0.1796-0.2912 0.378-0.4062 0.4375-0.1335 0.0682-0.185 0.2002-0.1562 0.375l0.0625 0.2812 3.031-0.5312c3.006-0.5246 3.07-0.5432 3.062-0.7812-4e-3 -0.179-0.1246-0.2778-0.4062-0.3438-0.6847-0.16-0.7219-0.3353-1.469-4.875l-0.6875-4.094 4.219-0.6875c4.037-0.6642 4.221-0.6777 4.469-0.5 0.142 0.1017 0.3099 0.3193 0.375 0.4688 0.0849 0.196 0.1816 0.2506 0.375 0.2188l0.2812-0.0625-0.4688-2.781c-0.4479-2.722-0.4712-2.817-0.6875-2.781-0.1452 0.0239-0.2521 0.1835-0.3125 0.4375-0.1837 0.7743-0.0188 0.7161-4.594 1.469l-4.156 0.6875-0.5-2.656-0.4688-2.656 6.188-1.031c3.741-0.6155 6.283-0.9754 6.469-0.9375 0.1684 0.0342 0.4234 0.2374 0.5625 0.4375 0.1524 0.2189 0.3152 0.3326 0.4375 0.3125 0.1918-0.0316 0.1921-0.1877-0.25-2.875-0.4452-2.706-0.4913-2.876-0.6875-2.844zm18.44 0.5625 0.6875 0.1875c0.4296 0.1199 0.8012 0.3344 1.031 0.5625 0.972 0.964 1.227 3.107 0.4688 4.031-0.156 0.1902-0.4527 0.4792-0.6562 0.625-0.3246 0.2326-0.9237 0.3679-4.812 1.125l-4.406 0.8438-0.5312-2.906-0.5625-2.906 4.375-0.7812zm160.3 48.59c-0.0749 0.0186-0.0865 0.0457-0.0937 0.0937-0.0169 0.1121 0.1136 0.3323 0.2812 0.5 0.4248 0.4244 0.4713 0.8338 0.2188 1.438-0.2457 0.5877-10.26 17.05-10.75 17.66-0.223 0.2801-0.4986 0.4403-0.8125 0.5312-0.4387 0.1273-0.6588 0.3784-0.5 0.5938 0.0353 0.0454 1.499 0.2982 3.25 0.5625l3.188 0.4688 0.0625-0.2812c0.0256-0.1697-0.0767-0.2846-0.1875-0.3438-0.1024-0.0547-0.2547-0.2286-0.375-0.375-0.3631-0.4416-0.1848-0.9485 0.9688-2.844l1.031-1.688 4.5 0.6562 4.438 0.6875 0.4688 1.719c0.7242 2.675 0.724 3.079-0.125 3.406-0.2353 0.0904-0.3816 0.212-0.4062 0.375l-0.0625 0.25 3.625 0.5625 3.594 0.5312 0.0312-0.25c0.0292-0.1937-0.0679-0.3364-0.375-0.5312-0.2721-0.1726-0.4857-0.4283-0.6562-0.8125-0.1418-0.3194-1.438-5.002-2.875-10.38-2.889-10.8-2.83-10.48-2.031-10.94 0.242-0.1401 0.4212-0.3295 0.4375-0.4375 0.0279-0.1847-0.1638-0.2605-3.406-0.75-2.466-0.3722-3.213-0.4622-3.438-0.4062zm70.84 1.562c-1.022 0.0207-2.78 0.1228-6.188 0.3125-3.489 0.1943-5.216 0.2972-6.094 0.375-0.8775 0.0778-0.9133 0.1354-0.9062 0.25 9e-3 0.1416 0.1554 0.2783 0.375 0.375 0.1959 0.0865 0.4304 0.2843 0.5 0.4375 0.077 0.1698 0.3476 4.164 0.7188 10.19 0.6656 10.8 0.6837 10.27 0.0312 10.56-0.1872 0.0847-0.2941 0.1978-0.2812 0.4062l0.0312 0.2812 6.688-0.4688c7.159-0.4983 7.608-0.5506 9.219-1.25 2.691-1.169 4.49-3.782 5.094-7.375 0.2436-1.451 0.0272-5.316-0.375-6.75-1.16-4.137-3.49-6.519-7.031-7.219-0.4764-0.0943-0.7589-0.1457-1.781-0.125zm-42.47 0.6562c-3.262 0-3.344 3.5e-4 -3.344 0.2188 0 0.1336 0.1426 0.3022 0.3438 0.4062 0.1857 0.096 0.3731 0.2858 0.4375 0.4062 0.0772 0.1452 0.125 3.552 0.125 10.19 0 9.863 8e-3 10.02-0.2188 10.31-0.1265 0.1612-0.3456 0.3038-0.4688 0.3438-0.1424 0.0452-0.2188 0.1682-0.2188 0.3438v0.2812h5.781v-0.2812c0-0.1904-0.1018-0.3388-0.375-0.5-0.2818-0.1664-0.42-0.3221-0.4688-0.5938-0.038-0.2074-0.0473-3.459-0.0312-7.219l0.0312-6.844 5.688 6.656c3.125 3.654 5.796 6.825 5.938 7.062 0.296 0.495 0.221 0.9642-0.1875 1.094-0.1516 0.0484-0.25 0.1646-0.25 0.3438v0.2812h6.25v-0.2812c0-0.1906-0.1009-0.3046-0.3125-0.4062-0.1701-0.0815-0.3583-0.2811-0.4375-0.4375-0.2036-0.4012-0.2336-19.84-0.0312-20.28 0.0746-0.164 0.2935-0.378 0.4688-0.4688 0.186-0.0964 0.3125-0.2754 0.3125-0.4062 0-0.2164-0.0968-0.2188-2.906-0.2188-2.772 0-2.875 0.0119-2.875 0.2188 0 0.1262 0.145 0.3019 0.375 0.4375 0.2167 0.1278 0.4328 0.356 0.4688 0.5 0.035 0.1439 0.0473 3.311 0.0312 7.031l-0.0312 6.781-5.562-6.562c-3.061-3.606-5.602-6.712-5.656-6.875-0.134-0.4023-0.026-0.8186 0.25-0.9062 0.1452-0.046 0.2188-0.1674 0.2188-0.3438v-0.2812h-3.344zm40.78 3.094c1.855-0.0506 2.333 0.0549 3.219 0.4688 1.212 0.5659 2.305 1.959 2.875 3.656 0.2125 0.6389 0.2958 1.19 0.4062 3 0.1205 1.968 0.0886 2.307-0.0937 3.125-0.5569 2.497-1.829 3.942-4 4.469-0.6186 0.1499-1.891 0.2911-4.219 0.4375l-3.312 0.1875-0.4688-7.531-0.4375-7.562 3.625-0.1562c0.9921-0.0476 1.788-0.0769 2.406-0.0937zm-66.66 0.625 0.9062 4c0.5176 2.196 0.9495 4.074 0.9688 4.188 0.0309 0.1936-0.1347 0.2014-3.125-0.25l-3.188-0.4688 1.938-3.312c1.077-1.813 2.076-3.487 2.219-3.719z" fill="#ce1126"/>
</svg>
