<svg version="1.1" id="Layer_1" xmlns="http://www.w3.org/2000/svg" xmlns:xlink="http://www.w3.org/1999/xlink" x="0px" y="0px"
	 width="100%" viewBox="0 0 214 236" enable-background="new 0 0 214 236" xml:space="preserve">
<path fill="#FEFEFE" opacity="1.000000" stroke="none" 
	d="
M215.000000,92.000000 
	C215.000000,140.666672 215.000000,188.833328 215.000000,237.000000 
	C143.666672,237.000000 72.333336,237.000000 1.000000,237.000000 
	C1.000000,158.333328 1.000000,79.666664 1.000000,1.000000 
	C72.333336,1.000000 143.666672,1.000000 215.000000,1.000000 
	C215.000000,31.166666 215.000000,61.333332 215.000000,92.000000 
M174.086899,86.505569 
	C174.048172,86.337646 174.009430,86.169716 174.178680,85.084206 
	C174.110458,66.054352 174.042252,47.024498 174.100464,27.497374 
	C174.033829,27.339859 173.967178,27.182346 173.577301,26.223892 
	C130.204575,26.223892 86.831833,26.223892 43.060547,26.223892 
	C43.060547,46.805885 43.060547,67.046318 42.909916,87.910583 
	C43.078701,88.956642 43.247486,90.002708 43.114967,91.468475 
	C43.143265,91.638359 43.171558,91.808235 42.977360,92.768951 
	C42.959351,111.927330 42.789139,131.087128 42.968002,150.243683 
	C43.132526,167.864639 49.910927,176.073257 67.026611,180.138474 
	C68.645325,180.522949 70.288872,180.802444 71.919853,181.135757 
	C83.795151,183.562637 95.917870,185.040451 106.922501,190.750336 
	C108.017647,191.318588 109.959572,190.583710 111.395515,190.110703 
	C118.471100,187.779922 125.396599,184.896332 132.591644,183.053329 
	C139.495560,181.284927 146.707199,180.758759 153.708832,179.322250 
	C167.550751,176.482346 173.325012,169.360580 174.046051,154.244263 
	C174.010162,153.502365 173.974258,152.760483 174.154114,151.100372 
	C174.094086,131.398483 174.034058,111.696602 174.086838,91.241859 
	C174.057953,90.989761 174.029083,90.737656 174.118835,89.791611 
	C174.041367,89.095306 173.963898,88.398994 173.953384,87.322380 
	C173.953384,87.322380 173.832443,86.955650 174.086899,86.505569 
M177.962555,190.239304 
	C177.965439,190.443710 177.968307,190.648117 177.188309,191.070679 
	C172.166885,190.577530 167.150970,190.015335 162.122269,189.613235 
	C158.150955,189.295685 154.163910,189.174957 150.183853,188.966827 
	C150.164902,189.728424 150.145950,190.490021 150.126999,191.251617 
	C153.166840,191.452316 156.206223,191.660202 159.246643,191.851791 
	C162.553070,192.060135 164.484177,193.355988 164.122314,197.126053 
	C163.857407,199.886002 164.070419,202.691833 164.070419,205.315826 
	C170.885147,206.760635 179.949478,205.396637 184.497299,202.500046 
	C187.760101,200.421906 189.750290,184.428802 187.094589,181.595261 
	C186.867905,181.353409 186.617676,181.128326 186.354279,180.926987 
	C182.072601,177.653915 171.734787,179.051987 168.333725,183.312225 
	C166.387375,185.750275 166.731415,187.876923 169.655167,188.709534 
	C172.297073,189.461884 175.183868,189.354355 177.962555,190.239304 
M157.312439,211.878342 
	C162.758072,210.213928 164.617737,204.967087 162.766342,196.490753 
	C162.066086,193.284729 156.097580,192.046661 148.846207,193.721985 
	C149.164856,198.672058 146.156677,199.620880 141.763107,200.204926 
	C119.508759,203.163269 97.324471,202.582260 75.106560,199.939240 
	C71.108139,199.463577 68.455872,198.225281 68.802376,193.815186 
	C56.400299,191.572647 54.253792,193.287766 54.300354,205.096191 
	C54.301670,205.429077 54.344299,205.768738 54.293972,206.093826 
	C53.756477,209.565933 55.326031,211.151657 58.704395,211.934387 
	C91.307678,219.488251 123.893524,219.823654 157.312439,211.878342 
M29.735861,182.123734 
	C29.557222,185.831024 28.987215,189.569290 29.277502,193.239487 
	C29.986879,202.208450 32.124798,204.297012 41.161972,205.896301 
	C42.472462,206.128204 43.803036,206.244278 45.120762,206.438095 
	C52.447544,207.515793 52.778496,207.242020 52.892036,199.955124 
	C53.004368,192.745895 53.670990,192.114120 60.931927,191.924805 
	C62.990589,191.871140 65.042931,191.574875 67.098167,191.389862 
	C67.042213,190.908005 66.986252,190.426132 66.930298,189.944260 
	C58.419846,186.334854 50.354591,193.479599 40.930531,191.666290 
	C43.048618,190.829956 44.344997,190.513931 45.423428,189.845993 
	C47.011200,188.862625 48.443546,187.628311 49.942101,186.500870 
	C48.674030,184.866867 47.741531,182.597870 46.075279,181.717361 
	C40.975765,179.022522 35.591106,178.758163 29.735861,182.123734 
z"/>
<path fill="#18406F" opacity="1.000000" stroke="none" 
	d="
M173.866364,154.968521 
	C173.325012,169.360580 167.550751,176.482346 153.708832,179.322250 
	C146.707199,180.758759 139.495560,181.284927 132.591644,183.053329 
	C125.396599,184.896332 118.471100,187.779922 111.395515,190.110703 
	C109.959572,190.583710 108.017647,191.318588 106.922501,190.750336 
	C95.917870,185.040451 83.795151,183.562637 71.919853,181.135757 
	C70.288872,180.802444 68.645325,180.522949 67.026611,180.138474 
	C49.910927,176.073257 43.132526,167.864639 42.968002,150.243683 
	C42.789139,131.087128 42.959351,111.927330 43.496929,92.299156 
	C44.393452,91.443352 44.770405,91.057335 45.599068,90.574966 
	C72.676048,90.467903 99.301353,90.430748 125.926605,90.456528 
	C141.562897,90.471672 157.199097,90.586952 172.963531,90.931854 
	C173.385803,91.469254 173.679916,91.731987 173.974030,91.994720 
	C174.034058,111.696602 174.094086,131.398483 173.807037,151.736786 
	C173.595428,153.238312 173.730896,154.103409 173.866364,154.968521 
M97.730721,106.409828 
	C102.880966,109.790039 105.180084,114.773491 103.898193,120.580231 
	C102.634857,126.302910 97.780540,129.006851 92.316132,129.210068 
	C85.898834,129.448715 79.329102,129.300735 73.041344,128.145523 
	C67.931770,127.206772 64.631645,128.706665 61.547539,132.018936 
	C65.276459,136.554214 69.584335,136.857010 74.722359,135.605545 
	C82.380920,133.740189 90.211441,132.936859 97.743645,136.397964 
	C103.981178,139.264160 105.852966,145.249039 102.764740,151.948975 
	C99.887077,158.192078 93.192665,160.971603 87.411736,158.143311 
	C83.523445,156.240997 81.622192,152.446213 82.561676,148.684967 
	C83.179245,146.212540 86.232491,143.991592 88.707809,142.521439 
	C89.655052,141.958847 92.142036,143.639053 93.648277,144.695236 
	C93.914001,144.881577 92.779541,147.029037 92.328476,148.284073 
	C91.938103,149.370270 91.599960,150.475235 91.238716,151.571899 
	C92.496910,151.678070 94.507912,152.318680 94.879417,151.795364 
	C96.282516,149.818970 98.127007,147.417160 98.022224,145.261276 
	C97.797073,140.629227 92.772583,137.725937 87.561028,138.428436 
	C81.358757,139.264511 77.836517,143.326202 77.819901,149.661530 
	C77.801758,156.577072 82.228111,161.927002 88.900032,162.964050 
	C98.516846,164.458847 104.530396,159.614471 108.176773,151.921158 
	C110.943916,154.917160 113.323593,158.169083 116.354179,160.614212 
	C120.733925,164.147873 128.660919,164.076050 133.365433,161.065353 
	C138.502411,157.777924 139.898239,152.867386 139.137360,147.171371 
	C138.512039,142.490005 135.571335,139.836243 131.093460,138.737488 
	C126.825272,137.690201 122.660301,138.436142 120.518471,142.207947 
	C119.327133,144.305923 119.719360,147.870773 120.611519,150.335190 
	C121.032349,151.497665 124.309311,151.626160 126.292130,152.223175 
	C126.475273,151.712158 126.658417,151.201141 126.841560,150.690125 
	C126.528145,150.149231 126.160942,149.631943 125.911430,149.063019 
	C125.172668,147.378555 124.480370,145.673737 123.769890,143.976868 
	C126.051857,143.656448 129.060989,142.293030 130.446228,143.258820 
	C132.550339,144.725784 134.702484,147.800339 134.720764,150.208099 
	C134.751862,154.302094 132.394974,157.819901 127.807816,158.847168 
	C120.996010,160.372650 115.360809,156.518478 113.410011,149.056610 
	C111.717255,142.581757 114.944603,136.537827 122.312714,135.535538 
	C129.405594,134.570694 136.875305,134.948959 143.986008,136.020691 
	C149.121857,136.794785 152.474976,135.491974 155.658173,131.954239 
	C150.012405,127.206429 150.050507,127.439812 143.063965,128.580292 
	C134.704956,129.944794 126.166870,131.654663 118.225121,126.944595 
	C112.483345,123.539284 111.354050,117.886429 114.763184,111.300201 
	C117.577484,105.863152 124.525177,103.002304 129.574951,106.114990 
	C132.039124,107.633911 133.949066,111.039925 134.712448,113.957405 
	C135.166214,115.691635 133.422455,119.098694 131.727341,120.014038 
	C129.697205,121.110275 125.844620,121.415154 124.238708,120.175209 
	C120.901138,117.598198 125.036232,116.304466 126.318825,114.560204 
	C126.506935,114.304375 126.569054,113.955894 127.296036,112.110977 
	C124.716110,112.420486 122.501595,112.065323 121.133049,112.978279 
	C118.192802,114.939713 117.850014,119.695053 120.693039,122.204308 
	C123.006424,124.246109 126.296890,126.653046 128.994980,126.475830 
	C134.369263,126.122849 138.576813,121.336296 139.151871,116.895988 
	C139.923203,110.940193 138.287338,106.014481 132.926025,102.734726 
	C128.266266,99.884140 120.657585,99.919800 116.397964,103.451416 
	C113.317886,106.005074 110.858772,109.307709 108.234970,112.154533 
	C107.164055,110.497841 106.071510,108.412422 104.613319,106.625381 
	C100.089401,101.081276 91.985947,99.201378 85.584259,102.044487 
	C80.044571,104.504768 77.256439,109.926033 77.873390,116.365662 
	C78.426064,122.134377 82.816376,124.869133 87.135429,126.327385 
	C89.438034,127.104828 93.334488,124.843605 95.818321,123.013161 
	C99.666542,120.177231 98.947342,113.860161 94.909302,112.166252 
	C93.899620,111.742714 92.491730,112.268456 91.266853,112.357903 
	C91.561501,113.476761 91.775459,114.625183 92.171906,115.706734 
	C92.632530,116.963371 93.994720,118.938736 93.672241,119.246361 
	C92.462700,120.400208 90.746048,121.637314 89.182426,121.687408 
	C84.855324,121.826042 81.585464,117.391609 82.415039,113.082733 
	C83.760841,106.092545 89.053795,103.548309 97.730721,106.409828 
z"/>
<path fill="#184070" opacity="1.000000" stroke="none" 
	d="
M173.974030,27.994644 
	C174.042252,47.024498 174.110458,66.054352 173.817688,85.535889 
	C173.285309,85.989647 173.113922,85.991722 172.478775,85.995834 
	C167.252579,85.997871 162.490158,85.997871 157.843384,85.997871 
	C157.156342,84.029366 156.632690,82.528969 156.093872,80.663071 
	C157.611450,78.496391 158.939072,76.451790 160.722977,74.948692 
	C163.712570,72.429688 166.249771,69.871368 165.810623,65.595718 
	C162.176010,66.864815 158.786804,68.048225 155.397598,69.231636 
	C155.063477,68.764694 154.729340,68.297752 154.395203,67.830811 
	C160.016876,65.207855 165.093231,62.198460 164.782730,55.302647 
	C161.572632,56.286697 158.594772,57.199558 155.560455,58.129726 
	C157.465958,54.259220 159.061676,51.017975 160.657379,47.776726 
	C160.201660,47.523849 159.745926,47.270973 159.290207,47.018093 
	C157.223633,47.667439 155.157059,48.316784 151.668777,49.412846 
	C155.809402,41.822895 154.475067,35.982391 150.350571,30.594999 
	C145.973297,36.288185 147.088699,42.595188 149.338531,49.816933 
	C145.813675,48.564682 143.590515,47.774879 141.367371,46.985081 
	C141.014862,47.246998 140.662354,47.508915 140.309845,47.770832 
	C142.361877,51.127251 144.413910,54.483669 147.052231,58.799046 
	C143.348114,57.430019 140.297958,56.302692 137.015167,55.089386 
	C136.174881,62.463379 142.959747,64.807976 146.533630,69.122215 
	C146.164474,69.614655 145.795303,70.107094 145.426147,70.599541 
	C141.768127,68.856194 138.110107,67.112854 134.091431,65.197624 
	C134.889313,70.514839 136.846970,74.508789 141.860001,76.679314 
	C144.536987,77.838387 147.585007,79.014267 146.795868,83.200226 
	C144.948227,84.294395 143.431351,85.817032 141.853821,85.882713 
	C135.221756,86.158882 128.563080,85.799683 121.931458,86.081177 
	C118.439415,86.229408 115.855186,85.701080 114.868973,81.567078 
	C116.011749,79.372948 116.837059,77.169243 118.403725,75.838005 
	C121.724617,73.016174 125.028091,70.407761 124.890465,65.533218 
	C121.196671,66.790489 117.810440,67.943062 114.424217,69.095642 
	C114.094513,68.571312 113.764801,68.046989 113.435089,67.522659 
	C119.295631,65.213814 123.590073,61.755569 123.809181,55.213501 
	C120.565300,56.209461 117.558456,57.132641 114.264122,58.144089 
	C116.370491,54.038891 118.113541,50.641785 119.856583,47.244678 
	C119.434509,47.059074 119.012436,46.873466 118.590355,46.687859 
	C116.232399,47.484802 113.874443,48.281746 110.340561,49.476131 
	C114.698853,42.053215 113.301460,36.382198 109.220222,30.987864 
	C104.403748,36.461273 106.675987,42.804504 107.515053,49.747971 
	C104.184303,48.404247 101.897141,47.481533 99.609970,46.558819 
	C99.333946,46.826385 99.057915,47.093948 98.781891,47.361515 
	C101.003510,50.884930 103.225128,54.408348 106.051376,58.890686 
	C102.173119,57.424145 98.990875,56.220798 95.731758,54.988380 
	C95.394989,62.308250 101.285172,65.178047 105.875351,68.888992 
	C105.365860,69.480049 104.856369,70.071114 104.346878,70.662170 
	C100.694687,68.912262 97.042496,67.162346 93.010666,65.230537 
	C93.565849,70.552498 95.564606,74.495987 100.359810,76.436478 
	C104.777695,78.224297 107.122139,81.032379 105.606079,85.988113 
	C96.082016,85.994278 87.032509,85.939209 77.984993,86.048294 
	C76.296295,86.068657 74.615532,86.747551 72.586151,86.900894 
	C71.372955,81.534676 72.450920,77.573982 77.325066,74.427261 
	C80.003304,72.698196 81.439034,69.044533 83.434982,66.258629 
	C83.061935,66.051003 82.688889,65.843376 82.315834,65.635750 
	C78.706261,66.822784 75.096687,68.009819 71.487114,69.196854 
	C71.271942,68.743141 71.056770,68.289429 70.841599,67.835716 
	C76.304848,65.100594 81.490433,62.158421 81.155670,55.039921 
	C81.396332,54.898941 81.446663,54.675980 81.496994,54.453018 
	C81.334785,54.639935 81.172585,54.826847 80.652527,55.081764 
	C77.486732,56.195671 74.678780,57.241570 71.545570,58.408623 
	C73.789429,54.104805 75.633949,50.566933 77.478462,47.029064 
	C77.073715,46.851353 76.668968,46.673645 76.264214,46.495934 
	C73.937065,47.342827 71.609917,48.189720 69.282768,49.036613 
	C72.515808,41.921780 70.687592,36.274017 66.693855,30.864847 
	C62.171894,36.434990 63.540703,42.589066 65.548386,49.746185 
	C62.083241,48.444668 59.739193,47.564243 57.395149,46.683815 
	C57.049629,46.880001 56.704109,47.076191 56.358593,47.272377 
	C58.448437,50.780338 60.538280,54.288300 63.236042,58.816696 
	C59.479790,57.400074 56.446026,56.255928 53.129143,55.005005 
	C52.727680,62.280563 59.080807,64.885483 62.864101,69.078453 
	C62.497307,69.524101 62.130512,69.969749 61.763718,70.415405 
	C58.040928,68.864700 54.318138,67.313995 50.209229,65.602463 
	C51.566910,71.351166 54.066605,75.104134 59.092522,77.052849 
	C63.558372,78.784416 64.198830,82.558784 63.585335,87.286743 
	C56.597492,87.286743 49.829021,87.286743 43.060547,87.286743 
	C43.060547,67.046318 43.060547,46.805885 43.060547,26.223892 
	C86.831833,26.223892 130.204575,26.223892 173.587921,26.723866 
	C173.723709,27.480776 173.848877,27.737709 173.974030,27.994644 
z"/>
<path fill="#C7A467" opacity="1.000000" stroke="none" 
	d="
M106.081337,85.983604 
	C107.122139,81.032379 104.777695,78.224297 100.359810,76.436478 
	C95.564606,74.495987 93.565849,70.552498 93.010666,65.230537 
	C97.042496,67.162346 100.694687,68.912262 104.346878,70.662170 
	C104.856369,70.071114 105.365860,69.480049 105.875351,68.888992 
	C101.285172,65.178047 95.394989,62.308250 95.731758,54.988380 
	C98.990875,56.220798 102.173119,57.424145 106.051376,58.890686 
	C103.225128,54.408348 101.003510,50.884930 98.781891,47.361515 
	C99.057915,47.093948 99.333946,46.826385 99.609970,46.558819 
	C101.897141,47.481533 104.184303,48.404247 107.515053,49.747971 
	C106.675987,42.804504 104.403748,36.461273 109.220222,30.987864 
	C113.301460,36.382198 114.698853,42.053215 110.340561,49.476131 
	C113.874443,48.281746 116.232399,47.484802 118.590355,46.687859 
	C119.012436,46.873466 119.434509,47.059074 119.856583,47.244678 
	C118.113541,50.641785 116.370491,54.038891 114.264122,58.144089 
	C117.558456,57.132641 120.565300,56.209461 123.809181,55.213501 
	C123.590073,61.755569 119.295631,65.213814 113.435089,67.522659 
	C113.764801,68.046989 114.094513,68.571312 114.424217,69.095642 
	C117.810440,67.943062 121.196671,66.790489 124.890465,65.533218 
	C125.028091,70.407761 121.724617,73.016174 118.403725,75.838005 
	C116.837059,77.169243 116.011749,79.372948 114.666611,81.872437 
	C113.522842,86.520432 114.982132,87.909798 119.099541,87.772537 
	C127.255013,87.500656 135.427841,87.589218 143.589661,87.738647 
	C147.350830,87.807510 148.529495,86.463470 147.098709,82.958557 
	C147.585007,79.014267 144.536987,77.838387 141.860001,76.679314 
	C136.846970,74.508789 134.889313,70.514839 134.091431,65.197624 
	C138.110107,67.112854 141.768127,68.856194 145.426147,70.599541 
	C145.795303,70.107094 146.164474,69.614655 146.533630,69.122215 
	C142.959747,64.807976 136.174881,62.463379 137.015167,55.089386 
	C140.297958,56.302692 143.348114,57.430019 147.052231,58.799046 
	C144.413910,54.483669 142.361877,51.127251 140.309845,47.770832 
	C140.662354,47.508915 141.014862,47.246998 141.367371,46.985081 
	C143.590515,47.774879 145.813675,48.564682 149.338531,49.816933 
	C147.088699,42.595188 145.973297,36.288185 150.350571,30.594999 
	C154.475067,35.982391 155.809402,41.822895 151.668777,49.412846 
	C155.157059,48.316784 157.223633,47.667439 159.290207,47.018093 
	C159.745926,47.270973 160.201660,47.523849 160.657379,47.776726 
	C159.061676,51.017975 157.465958,54.259220 155.560455,58.129726 
	C158.594772,57.199558 161.572632,56.286697 164.782730,55.302647 
	C165.093231,62.198460 160.016876,65.207855 154.395203,67.830811 
	C154.729340,68.297752 155.063477,68.764694 155.397598,69.231636 
	C158.786804,68.048225 162.176010,66.864815 165.810623,65.595718 
	C166.249771,69.871368 163.712570,72.429688 160.722977,74.948692 
	C158.939072,76.451790 157.611450,78.496391 155.990723,81.017715 
	C154.591812,86.248680 155.969986,88.210167 160.942841,87.773804 
	C165.226471,87.397926 169.569611,87.700233 173.886429,87.702698 
	C173.963898,88.398994 174.041367,89.095306 173.761566,90.134140 
	C173.214630,90.536842 173.024979,90.597023 172.835342,90.657196 
	C157.199097,90.586952 141.562897,90.471672 125.926605,90.456528 
	C99.301353,90.430748 72.676048,90.467903 45.144196,90.572136 
	C43.963837,90.793358 43.690056,90.921059 43.416271,91.048767 
	C43.247486,90.002708 43.078701,88.956642 42.985229,87.598663 
	C49.829021,87.286743 56.597492,87.286743 63.585335,87.286743 
	C64.198830,82.558784 63.558372,78.784416 59.092522,77.052849 
	C54.066605,75.104134 51.566910,71.351166 50.209229,65.602463 
	C54.318138,67.313995 58.040928,68.864700 61.763718,70.415405 
	C62.130512,69.969749 62.497307,69.524101 62.864101,69.078453 
	C59.080807,64.885483 52.727680,62.280563 53.129143,55.005005 
	C56.446026,56.255928 59.479790,57.400074 63.236042,58.816696 
	C60.538280,54.288300 58.448437,50.780338 56.358593,47.272377 
	C56.704109,47.076191 57.049629,46.880001 57.395149,46.683815 
	C59.739193,47.564243 62.083241,48.444668 65.548386,49.746185 
	C63.540703,42.589066 62.171894,36.434990 66.693855,30.864847 
	C70.687592,36.274017 72.515808,41.921780 69.282768,49.036613 
	C71.609917,48.189720 73.937065,47.342827 76.264214,46.495934 
	C76.668968,46.673645 77.073715,46.851353 77.478462,47.029064 
	C75.633949,50.566933 73.789429,54.104805 71.545570,58.408623 
	C74.678780,57.241570 77.486732,56.195671 80.641472,55.068207 
	C80.988266,54.986641 80.965332,54.957939 80.965332,54.957939 
	C81.490433,62.158421 76.304848,65.100594 70.841599,67.835716 
	C71.056770,68.289429 71.271942,68.743141 71.487114,69.196854 
	C75.096687,68.009819 78.706261,66.822784 82.315834,65.635750 
	C82.688889,65.843376 83.061935,66.051003 83.434982,66.258629 
	C81.439034,69.044533 80.003304,72.698196 77.325066,74.427261 
	C72.450920,77.573982 71.372955,81.534676 73.055008,86.987137 
	C83.170845,87.310318 92.473503,87.383743 101.774185,87.279922 
	C103.214546,87.263855 104.645844,86.436035 106.081337,85.983604 
z"/>
<path fill="#CAA86B" opacity="1.000000" stroke="none" 
	d="
M156.905121,211.945663 
	C123.893524,219.823654 91.307678,219.488251 58.704395,211.934387 
	C55.326031,211.151657 53.756477,209.565933 54.293972,206.093826 
	C54.344299,205.768738 54.301670,205.429077 54.300354,205.096191 
	C54.253792,193.287766 56.400299,191.572647 68.802376,193.815186 
	C68.455872,198.225281 71.108139,199.463577 75.106560,199.939240 
	C97.324471,202.582260 119.508759,203.163269 141.763107,200.204926 
	C146.156677,199.620880 149.164856,198.672058 148.846207,193.721985 
	C156.097580,192.046661 162.066086,193.284729 162.766342,196.490753 
	C164.617737,204.967087 162.758072,210.213928 156.905121,211.945663 
M116.972572,211.590637 
	C117.323586,211.738113 117.674606,211.885590 118.008133,211.989639 
	C118.008133,211.989639 117.962952,211.977341 118.080727,212.696487 
	C119.137756,212.516769 120.194778,212.337051 121.723595,212.350250 
	C122.194099,212.539871 122.664597,212.729492 123.852127,213.028549 
	C124.887001,212.689255 125.921875,212.349945 127.487946,211.996109 
	C127.665047,211.995087 127.842155,211.994049 128.463150,212.555878 
	C129.994537,212.109726 132.289200,212.100662 132.859787,211.104294 
	C133.538864,209.918503 133.305695,207.371460 132.404907,206.375290 
	C131.632263,205.520813 129.362274,206.020294 127.407166,205.940628 
	C127.407166,205.940628 127.057938,205.977310 126.308182,205.902084 
	C124.954330,206.290695 123.600487,206.679291 121.578445,206.964355 
	C120.432732,207.366409 118.205589,202.528976 117.555954,207.962387 
	C117.272049,208.186600 116.988152,208.410828 116.215302,208.511414 
	C115.835976,208.216843 115.456642,207.922272 114.963531,207.192276 
	C114.754944,207.019089 114.546364,206.845917 114.337776,206.672745 
	C114.218735,207.097305 114.099693,207.521881 113.992065,208.691483 
	C114.673027,209.501358 115.353996,210.311218 116.378197,211.124939 
	C116.378197,211.124939 116.704536,211.018509 116.972572,211.590637 
M143.049576,207.985504 
	C143.049576,207.985504 143.075607,207.931610 143.147232,207.205536 
	C142.486404,206.145813 141.825577,205.086075 141.164734,204.026352 
	C140.658020,204.267014 140.151291,204.507660 139.644577,204.748322 
	C140.409836,206.810318 141.175110,208.872299 142.558090,210.914902 
	C142.761642,210.883377 142.965210,210.851837 143.651550,210.624512 
	C143.799652,210.131317 143.947739,209.638138 144.641922,208.777405 
	C145.075119,207.846222 145.508316,206.915039 146.031876,205.286743 
	C145.671219,204.901611 145.310577,204.516464 144.949921,204.131317 
	C144.650528,204.748978 144.351120,205.366653 143.861557,206.471649 
	C143.884872,206.813721 143.908173,207.155777 143.426407,207.631058 
	C143.287277,207.734924 143.148148,207.838806 143.049576,207.985504 
M154.984299,206.083862 
	C154.984299,206.083862 154.926773,206.192825 154.981232,206.591080 
	C155.190399,207.022064 155.399582,207.453033 156.469162,208.205795 
	C156.678925,207.081741 156.888687,205.957672 157.266129,204.370102 
	C157.177689,203.982101 157.089264,203.594086 157.000824,203.206085 
	C156.635101,203.679398 156.269379,204.152710 155.403732,204.699814 
	C155.236160,204.717026 155.068588,204.734238 154.612762,204.634644 
	C154.612762,204.634644 154.306870,204.578476 154.232468,203.959488 
	C153.160583,204.028702 152.088699,204.097931 151.016815,204.167160 
	C151.026917,204.333878 151.037018,204.500610 151.047119,204.667328 
	C151.988953,204.826294 152.930786,204.985245 154.114441,205.590073 
	C154.416351,205.715378 154.718262,205.840683 154.984299,206.083862 
M75.289566,210.648804 
	C76.504257,210.438232 77.718956,210.227661 79.522324,209.985794 
	C79.718399,209.972717 79.914467,209.959656 80.557190,210.107224 
	C80.557190,210.107224 80.957802,210.361816 81.098885,210.948746 
	C84.558304,211.308990 88.017715,211.669250 91.479355,212.029724 
	C91.963997,210.437546 92.588448,208.386032 93.547226,205.236191 
	C89.336006,207.005493 85.747627,208.513123 82.050034,209.262100 
	C82.088074,208.499817 82.126122,207.737518 82.916557,206.993591 
	C84.287491,206.670151 85.658424,206.346725 87.317184,205.902802 
	C87.204407,205.926315 87.091621,205.949844 86.299736,205.874329 
	C84.729866,205.393753 82.415962,201.243195 81.371384,206.821060 
	C80.919495,206.900146 80.467606,206.979233 80.008751,206.527039 
	C80.004204,206.349976 79.999657,206.172913 79.576775,205.435211 
	C75.987022,204.568008 72.397270,203.700790 68.807518,202.833572 
	C68.711258,203.282516 68.614998,203.731445 68.518738,204.180374 
	C70.727547,204.866531 72.936348,205.552689 75.037079,206.986450 
	C75.025040,207.990631 75.013000,208.994797 75.289566,210.648804 
M65.988815,204.314789 
	C65.433990,203.646622 64.879158,202.978439 63.691525,202.096710 
	C63.472752,202.055496 63.253975,202.014267 62.358189,202.238708 
	C62.088791,203.167786 61.819393,204.096848 61.147797,205.568771 
	C60.565578,208.053711 60.840580,209.692917 64.484055,207.957382 
	C64.665543,207.311005 64.847031,206.664612 65.445442,205.839676 
	C65.445442,205.839676 65.883591,205.722504 66.335289,205.860809 
	C66.453735,205.758102 66.572182,205.655396 66.690643,205.552689 
	C66.462463,205.365646 66.234283,205.178619 65.988815,204.314789 
M62.602188,195.057312 
	C61.478588,195.237030 60.354992,195.416763 59.231392,195.596481 
	C59.212402,196.085205 59.193413,196.573914 59.174423,197.062637 
	C61.753025,197.489288 64.328011,197.945084 66.919670,198.266495 
	C67.067200,198.284790 67.351173,197.202972 67.571640,196.633148 
	C66.179573,196.108215 64.787506,195.583298 62.602188,195.057312 
M110.110489,208.977142 
	C110.176865,209.843872 110.243240,210.710602 110.309624,211.577332 
	C110.552696,211.548431 110.795776,211.519516 111.038857,211.490616 
	C110.882675,210.478058 110.726501,209.465515 110.110489,208.977142 
M147.521317,203.616959 
	C147.357269,204.206848 147.193237,204.796738 147.029190,205.386612 
	C147.244843,205.434723 147.460480,205.482834 147.676132,205.530930 
	C147.757095,205.029144 147.838074,204.527344 147.521317,203.616959 
z"/>
<path fill="#D3AF6E" opacity="1.000000" stroke="none" 
	d="
M30.023170,181.847778 
	C35.591106,178.758163 40.975765,179.022522 46.075279,181.717361 
	C47.741531,182.597870 48.674030,184.866867 49.942101,186.500870 
	C48.443546,187.628311 47.011200,188.862625 45.423428,189.845993 
	C44.344997,190.513931 43.048618,190.829956 40.930531,191.666290 
	C50.354591,193.479599 58.419846,186.334854 66.930298,189.944260 
	C66.986252,190.426132 67.042213,190.908005 67.098167,191.389862 
	C65.042931,191.574875 62.990589,191.871140 60.931927,191.924805 
	C53.670990,192.114120 53.004368,192.745895 52.892036,199.955124 
	C52.778496,207.242020 52.447544,207.515793 45.120762,206.438095 
	C43.803036,206.244278 42.472462,206.128204 41.161972,205.896301 
	C32.124798,204.297012 29.986879,202.208450 29.277502,193.239487 
	C28.987215,189.569290 29.557222,185.831024 30.023170,181.847778 
M33.703049,188.986893 
	C34.059803,189.124390 34.416557,189.261887 34.773308,189.399384 
	C34.607311,188.851562 34.441319,188.303757 34.080608,187.004868 
	C35.158932,186.570465 36.293571,185.668793 37.304840,185.790680 
	C40.151554,186.133820 43.091385,188.341049 46.074673,184.825500 
	C41.805088,182.341995 37.849361,180.978256 33.583267,183.215424 
	C30.738010,184.707520 29.879297,186.667282 33.703049,188.986893 
z"/>
<path fill="#D3AE6C" opacity="1.000000" stroke="none" 
	d="
M177.962677,189.626007 
	C175.183868,189.354355 172.297073,189.461884 169.655167,188.709534 
	C166.731415,187.876923 166.387375,185.750275 168.333725,183.312225 
	C171.734787,179.051987 182.072601,177.653915 186.354279,180.926987 
	C186.617676,181.128326 186.867905,181.353409 187.094589,181.595261 
	C189.750290,184.428802 187.760101,200.421906 184.497299,202.500046 
	C179.949478,205.396637 170.885147,206.760635 164.070419,205.315826 
	C164.070419,202.691833 163.857407,199.886002 164.122314,197.126053 
	C164.484177,193.355988 162.553070,192.060135 159.246643,191.851791 
	C156.206223,191.660202 153.166840,191.452316 150.126999,191.251617 
	C150.145950,190.490021 150.164902,189.728424 150.183853,188.966827 
	C154.163910,189.174957 158.150955,189.295685 162.122269,189.613235 
	C167.150970,190.015335 172.166885,190.577530 177.940674,190.968994 
	C180.610123,189.936798 182.921417,189.380249 184.294174,187.933289 
	C185.097534,187.086502 185.082932,184.123276 184.258606,183.318527 
	C181.551453,180.675659 175.002228,181.697937 170.702255,186.088028 
	C175.628525,185.756683 179.223480,185.514877 182.818451,185.273087 
	C182.977173,185.587433 183.135880,185.901764 183.294601,186.216110 
	C181.517288,187.352753 179.739990,188.489380 177.962677,189.626007 
z"/>
<path fill="#F9F3EA" opacity="1.000000" stroke="none" 
	d="
M177.962616,189.932663 
	C179.739990,188.489380 181.517288,187.352753 183.294601,186.216110 
	C183.135880,185.901764 182.977173,185.587433 182.818451,185.273087 
	C179.223480,185.514877 175.628525,185.756683 170.702255,186.088028 
	C175.002228,181.697937 181.551453,180.675659 184.258606,183.318527 
	C185.082932,184.123276 185.097534,187.086502 184.294174,187.933289 
	C182.921417,189.380249 180.610123,189.936798 178.332108,190.859924 
	C177.968307,190.648117 177.965439,190.443710 177.962616,189.932663 
z"/>
<path fill="#17436E" opacity="1.000000" stroke="none" 
	d="
M173.919907,87.512543 
	C169.569611,87.700233 165.226471,87.397926 160.942841,87.773804 
	C155.969986,88.210167 154.591812,86.248680 156.005875,81.383217 
	C156.632690,82.528969 157.156342,84.029366 157.843384,85.997871 
	C162.490158,85.997871 167.252579,85.997871 172.578949,86.196892 
	C173.324020,86.642532 173.553864,86.829109 173.832443,86.955650 
	C173.832443,86.955650 173.953384,87.322380 173.919907,87.512543 
z"/>
<path fill="#002D66" opacity="1.000000" stroke="none" 
	d="
M173.956207,154.606384 
	C173.730896,154.103409 173.595428,153.238312 173.699173,152.195892 
	C173.974258,152.760483 174.010162,153.502365 173.956207,154.606384 
z"/>
<path fill="#002D66" opacity="1.000000" stroke="none" 
	d="
M174.037247,27.746008 
	C173.848877,27.737709 173.723709,27.480776 173.749542,27.124336 
	C173.967178,27.182346 174.033829,27.339859 174.037247,27.746008 
z"/>
<path fill="#002D66" opacity="1.000000" stroke="none" 
	d="
M172.963531,90.931854 
	C173.024979,90.597023 173.214630,90.536842 173.702255,90.481110 
	C174.029083,90.737656 174.057953,90.989761 174.030426,91.618286 
	C173.679916,91.731987 173.385803,91.469254 172.963531,90.931854 
z"/>
<path fill="#0D3B6F" opacity="1.000000" stroke="none" 
	d="
M43.265617,91.258621 
	C43.690056,90.921059 43.963837,90.793358 44.692490,90.668488 
	C44.770405,91.057335 44.393452,91.443352 43.608173,91.903740 
	C43.171558,91.808235 43.143265,91.638359 43.265617,91.258621 
z"/>
<path fill="#002D66" opacity="1.000000" stroke="none" 
	d="
M173.959671,86.730606 
	C173.553864,86.829109 173.324020,86.642532 173.042725,86.194855 
	C173.113922,85.991722 173.285309,85.989647 173.713684,85.994675 
	C174.009430,86.169716 174.048172,86.337646 173.959671,86.730606 
z"/>
<path fill="#C6A467" opacity="1.000000" stroke="none" 
	d="
M97.382980,106.232437 
	C89.053795,103.548309 83.760841,106.092545 82.415039,113.082733 
	C81.585464,117.391609 84.855324,121.826042 89.182426,121.687408 
	C90.746048,121.637314 92.462700,120.400208 93.672241,119.246361 
	C93.994720,118.938736 92.632530,116.963371 92.171906,115.706734 
	C91.775459,114.625183 91.561501,113.476761 91.266853,112.357903 
	C92.491730,112.268456 93.899620,111.742714 94.909302,112.166252 
	C98.947342,113.860161 99.666542,120.177231 95.818321,123.013161 
	C93.334488,124.843605 89.438034,127.104828 87.135429,126.327385 
	C82.816376,124.869133 78.426064,122.134377 77.873390,116.365662 
	C77.256439,109.926033 80.044571,104.504768 85.584259,102.044487 
	C91.985947,99.201378 100.089401,101.081276 104.613319,106.625381 
	C106.071510,108.412422 107.164055,110.497841 108.234970,112.154533 
	C110.858772,109.307709 113.317886,106.005074 116.397964,103.451416 
	C120.657585,99.919800 128.266266,99.884140 132.926025,102.734726 
	C138.287338,106.014481 139.923203,110.940193 139.151871,116.895988 
	C138.576813,121.336296 134.369263,126.122849 128.994980,126.475830 
	C126.296890,126.653046 123.006424,124.246109 120.693039,122.204308 
	C117.850014,119.695053 118.192802,114.939713 121.133049,112.978279 
	C122.501595,112.065323 124.716110,112.420486 127.296036,112.110977 
	C126.569054,113.955894 126.506935,114.304375 126.318825,114.560204 
	C125.036232,116.304466 120.901138,117.598198 124.238708,120.175209 
	C125.844620,121.415154 129.697205,121.110275 131.727341,120.014038 
	C133.422455,119.098694 135.166214,115.691635 134.712448,113.957405 
	C133.949066,111.039925 132.039124,107.633911 129.574951,106.114990 
	C124.525177,103.002304 117.577484,105.863152 114.763184,111.300201 
	C111.354050,117.886429 112.483345,123.539284 118.225121,126.944595 
	C126.166870,131.654663 134.704956,129.944794 143.063965,128.580292 
	C150.050507,127.439812 150.012405,127.206429 155.658173,131.954239 
	C152.474976,135.491974 149.121857,136.794785 143.986008,136.020691 
	C136.875305,134.948959 129.405594,134.570694 122.312714,135.535538 
	C114.944603,136.537827 111.717255,142.581757 113.410011,149.056610 
	C115.360809,156.518478 120.996010,160.372650 127.807816,158.847168 
	C132.394974,157.819901 134.751862,154.302094 134.720764,150.208099 
	C134.702484,147.800339 132.550339,144.725784 130.446228,143.258820 
	C129.060989,142.293030 126.051857,143.656448 123.769890,143.976868 
	C124.480370,145.673737 125.172668,147.378555 125.911430,149.063019 
	C126.160942,149.631943 126.528145,150.149231 126.841560,150.690125 
	C126.658417,151.201141 126.475273,151.712158 126.292130,152.223175 
	C124.309311,151.626160 121.032349,151.497665 120.611519,150.335190 
	C119.719360,147.870773 119.327133,144.305923 120.518471,142.207947 
	C122.660301,138.436142 126.825272,137.690201 131.093460,138.737488 
	C135.571335,139.836243 138.512039,142.490005 139.137360,147.171371 
	C139.898239,152.867386 138.502411,157.777924 133.365433,161.065353 
	C128.660919,164.076050 120.733925,164.147873 116.354179,160.614212 
	C113.323593,158.169083 110.943916,154.917160 108.176773,151.921158 
	C104.530396,159.614471 98.516846,164.458847 88.900032,162.964050 
	C82.228111,161.927002 77.801758,156.577072 77.819901,149.661530 
	C77.836517,143.326202 81.358757,139.264511 87.561028,138.428436 
	C92.772583,137.725937 97.797073,140.629227 98.022224,145.261276 
	C98.127007,147.417160 96.282516,149.818970 94.879417,151.795364 
	C94.507912,152.318680 92.496910,151.678070 91.238716,151.571899 
	C91.599960,150.475235 91.938103,149.370270 92.328476,148.284073 
	C92.779541,147.029037 93.914001,144.881577 93.648277,144.695236 
	C92.142036,143.639053 89.655052,141.958847 88.707809,142.521439 
	C86.232491,143.991592 83.179245,146.212540 82.561676,148.684967 
	C81.622192,152.446213 83.523445,156.240997 87.411736,158.143311 
	C93.192665,160.971603 99.887077,158.192078 102.764740,151.948975 
	C105.852966,145.249039 103.981178,139.264160 97.743645,136.397964 
	C90.211441,132.936859 82.380920,133.740189 74.722359,135.605545 
	C69.584335,136.857010 65.276459,136.554214 61.547539,132.018936 
	C64.631645,128.706665 67.931770,127.206772 73.041344,128.145523 
	C79.329102,129.300735 85.898834,129.448715 92.316132,129.210068 
	C97.780540,129.006851 102.634857,126.302910 103.898193,120.580231 
	C105.180084,114.773491 102.880966,109.790039 97.382980,106.232437 
M106.885765,124.464806 
	C105.181839,126.881058 103.477913,129.297318 101.797806,131.679794 
	C104.092659,135.168045 106.422646,138.709702 108.633820,142.070755 
	C110.752449,139.036438 113.100899,135.672974 115.418259,132.354034 
	C113.148735,128.926559 110.745804,125.297600 108.285141,121.581459 
	C107.900490,122.363869 107.539078,123.099014 106.885765,124.464806 
z"/>
<path fill="#16436E" opacity="1.000000" stroke="none" 
	d="
M146.795868,83.200226 
	C148.529495,86.463470 147.350830,87.807510 143.589661,87.738647 
	C135.427841,87.589218 127.255013,87.500656 119.099541,87.772537 
	C114.982132,87.909798 113.522842,86.520432 114.685059,82.258186 
	C115.855186,85.701080 118.439415,86.229408 121.931458,86.081177 
	C128.563080,85.799683 135.221756,86.158882 141.853821,85.882713 
	C143.431351,85.817032 144.948227,84.294395 146.795868,83.200226 
z"/>
<path fill="#00396F" opacity="1.000000" stroke="none" 
	d="
M105.606079,85.988113 
	C104.645844,86.436035 103.214546,87.263855 101.774185,87.279922 
	C92.473503,87.383743 83.170845,87.310318 73.399971,87.208786 
	C74.615532,86.747551 76.296295,86.068657 77.984993,86.048294 
	C87.032509,85.939209 96.082016,85.994278 105.606079,85.988113 
z"/>
<path fill="#C7A467" opacity="1.000000" stroke="none" 
	d="
M80.999321,55.000202 
	C81.172585,54.826847 81.334785,54.639935 81.496994,54.453018 
	C81.446663,54.675980 81.396332,54.898941 81.155670,55.039921 
	C80.965332,54.957939 80.988266,54.986641 80.999321,55.000202 
z"/>
<path fill="#B89B68" opacity="1.000000" stroke="none" 
	d="
M82.159241,210.020752 
	C85.747627,208.513123 89.336006,207.005493 93.547226,205.236191 
	C92.588448,208.386032 91.963997,210.437546 91.479355,212.029724 
	C88.017715,211.669250 84.558304,211.308990 81.327507,210.564743 
	C81.757164,210.127426 81.958199,210.074097 82.159241,210.020752 
z"/>
<path fill="#59616D" opacity="1.000000" stroke="none" 
	d="
M127.754471,205.921005 
	C129.362274,206.020294 131.632263,205.520813 132.404907,206.375290 
	C133.305695,207.371460 133.538864,209.918503 132.859787,211.104294 
	C132.289200,212.100662 129.994537,212.109726 128.273590,211.842667 
	C127.974159,209.393311 127.864311,207.657150 127.754471,205.921005 
z"/>
<path fill="#F4ECDD" opacity="1.000000" stroke="none" 
	d="
M62.998817,195.057831 
	C64.787506,195.583298 66.179573,196.108215 67.571640,196.633148 
	C67.351173,197.202972 67.067200,198.284790 66.919670,198.266495 
	C64.328011,197.945084 61.753025,197.489288 59.174423,197.062637 
	C59.193413,196.573914 59.212402,196.085205 59.231392,195.596481 
	C60.354992,195.416763 61.478588,195.237030 62.998817,195.057831 
z"/>
<path fill="#A58F69" opacity="1.000000" stroke="none" 
	d="
M75.145157,206.238846 
	C72.936348,205.552689 70.727547,204.866531 68.518738,204.180374 
	C68.614998,203.731445 68.711258,203.282516 68.807518,202.833572 
	C72.397270,203.700790 75.987022,204.568008 79.553955,205.832092 
	C79.339577,206.511566 79.148010,206.794144 78.625885,207.041061 
	C77.245277,206.749893 76.195213,206.494370 75.145157,206.238846 
z"/>
<path fill="#C6A467" opacity="1.000000" stroke="none" 
	d="
M118.042961,207.694077 
	C118.205589,202.528976 120.432732,207.366409 121.972122,207.414459 
	C122.470306,208.937469 122.574814,210.010391 122.271706,211.024887 
	C121.592148,210.967377 121.320206,210.968277 120.727142,211.061600 
	C119.591660,211.428467 118.777306,211.702911 117.962952,211.977341 
	C117.962952,211.977341 118.008133,211.989639 118.022491,211.764847 
	C118.036842,211.540054 117.920670,211.060776 117.911705,210.768890 
	C117.851334,210.289246 117.799927,210.101471 117.756569,209.704391 
	C117.764618,209.495087 117.749825,209.076416 117.849991,208.736542 
	C117.981094,208.162460 118.012024,207.928268 118.042961,207.694077 
z"/>
<path fill="#27466F" opacity="1.000000" stroke="none" 
	d="
M122.679321,211.083313 
	C122.574814,210.010391 122.470306,208.937469 122.306221,207.466217 
	C123.600487,206.679291 124.954330,206.290695 126.493500,206.214661 
	C125.841309,207.280319 125.003807,208.033417 124.138725,209.126343 
	C124.110741,209.693436 124.110329,209.920731 124.147408,210.474731 
	C125.108849,211.204498 126.032806,211.607574 126.956757,212.010651 
	C125.921875,212.349945 124.887001,212.689255 123.463867,212.730713 
	C122.943512,211.983017 122.811417,211.533173 122.679321,211.083313 
z"/>
<path fill="#AF9568" opacity="1.000000" stroke="none" 
	d="
M124.166306,208.786514 
	C125.003807,208.033417 125.841309,207.280319 126.868378,206.252258 
	C127.057938,205.977310 127.407166,205.940628 127.580811,205.930817 
	C127.864311,207.657150 127.974159,209.393311 128.051636,211.561249 
	C127.842155,211.994049 127.665047,211.995087 127.222351,212.003387 
	C126.032806,211.607574 125.108849,211.204498 124.442581,210.426620 
	C125.229897,209.908173 125.759544,209.764511 127.357201,209.331207 
	C125.578690,209.027618 124.872498,208.907059 124.166306,208.786514 
z"/>
<path fill="#90826A" opacity="1.000000" stroke="none" 
	d="
M64.013321,208.473206 
	C60.840580,209.692917 60.565578,208.053711 61.705223,205.167755 
	C62.520168,203.835510 62.777679,202.904282 63.035194,201.973053 
	C63.253975,202.014267 63.472752,202.055496 63.979233,202.555908 
	C64.244736,203.965515 64.222534,204.915939 64.124557,206.295074 
	C64.036964,207.306915 64.025146,207.890060 64.013321,208.473206 
z"/>
<path fill="#48576E" opacity="1.000000" stroke="none" 
	d="
M141.940369,210.934280 
	C141.175110,208.872299 140.409836,206.810318 139.644577,204.748322 
	C140.151291,204.507660 140.658020,204.267014 141.164734,204.026352 
	C141.825577,205.086075 142.486404,206.145813 142.837555,207.769226 
	C142.332047,209.200027 142.136215,210.067154 141.940369,210.934280 
z"/>
<path fill="#B89B68" opacity="1.000000" stroke="none" 
	d="
M87.029350,206.023285 
	C85.658424,206.346725 84.287491,206.670151 82.466873,206.944489 
	C82.017197,206.895386 82.056793,206.734512 82.056793,206.734512 
	C82.415962,201.243195 84.729866,205.393753 86.650719,205.937469 
	C87.001701,206.000626 87.029350,206.023285 87.029350,206.023285 
z"/>
<path fill="#B89B68" opacity="1.000000" stroke="none" 
	d="
M78.956444,207.076721 
	C79.148010,206.794144 79.339577,206.511566 79.763123,206.112427 
	C79.999657,206.172913 80.004204,206.349976 80.017517,207.153625 
	C80.054367,208.502350 80.082451,209.224472 80.110527,209.946594 
	C79.914467,209.959656 79.718399,209.972717 78.886002,209.983093 
	C77.566254,209.968414 76.882828,209.956451 76.166786,209.602600 
	C77.074936,208.532700 78.015686,207.804703 78.956444,207.076721 
z"/>
<path fill="#1A406F" opacity="1.000000" stroke="none" 
	d="
M64.200333,205.866364 
	C64.222534,204.915939 64.244736,203.965515 64.295639,202.662674 
	C64.879158,202.978439 65.433990,203.646622 65.947174,204.832642 
	C65.905540,205.350510 65.883591,205.722504 65.883591,205.722504 
	C65.883591,205.722504 65.445442,205.839676 65.030197,205.889297 
	C64.614960,205.938919 64.200333,205.866364 64.200333,205.866364 
z"/>
<path fill="#535D6E" opacity="1.000000" stroke="none" 
	d="
M117.749825,209.076416 
	C117.749825,209.076416 117.764618,209.495087 117.484329,209.761658 
	C116.814339,210.392517 116.424652,210.756805 116.034958,211.121094 
	C115.353996,210.311218 114.673027,209.501358 114.259575,208.235992 
	C114.710487,207.729568 114.893898,207.678635 115.077309,207.627716 
	C115.456642,207.922272 115.835976,208.216843 116.712135,208.708710 
	C117.389252,208.962814 117.569534,209.019608 117.749825,209.076416 
z"/>
<path fill="#1A406F" opacity="1.000000" stroke="none" 
	d="
M78.625885,207.041077 
	C78.015686,207.804703 77.074936,208.532700 75.867004,209.619247 
	C75.400200,209.984863 75.200584,209.991913 75.000961,209.998978 
	C75.013000,208.994797 75.025040,207.990631 75.091118,206.612640 
	C76.195213,206.494370 77.245277,206.749893 78.625885,207.041077 
z"/>
<path fill="#575F6D" opacity="1.000000" stroke="none" 
	d="
M80.333862,210.026917 
	C80.082451,209.224472 80.054367,208.502350 80.021004,207.419281 
	C80.467606,206.979233 80.919495,206.900146 81.714088,206.777786 
	C82.056793,206.734512 82.017197,206.895386 82.090683,206.935303 
	C82.126122,207.737518 82.088074,208.499817 82.104637,209.641418 
	C81.958199,210.074097 81.757164,210.127426 81.256966,210.271271 
	C80.957802,210.361816 80.557190,210.107224 80.333862,210.026917 
z"/>
<path fill="#535D6E" opacity="1.000000" stroke="none" 
	d="
M153.872620,205.144196 
	C152.930786,204.985245 151.988953,204.826294 151.047119,204.667328 
	C151.037018,204.500610 151.026917,204.333878 151.016815,204.167160 
	C152.088699,204.097931 153.160583,204.028702 154.163971,204.415741 
	C154.095474,204.871979 153.872620,205.144196 153.872620,205.144196 
z"/>
<path fill="#48576E" opacity="1.000000" stroke="none" 
	d="
M145.941513,205.983856 
	C145.508316,206.915039 145.075119,207.846222 144.313782,208.550705 
	C143.967590,208.048615 143.949524,207.773224 143.931473,207.497849 
	C143.908173,207.155777 143.884872,206.813721 144.271484,206.235260 
	C145.101440,205.993881 145.521484,205.988861 145.941513,205.983856 
z"/>
<path fill="#374E6E" opacity="1.000000" stroke="none" 
	d="
M157.098450,204.833618 
	C156.888687,205.957672 156.678925,207.081741 156.409424,207.964737 
	C155.875381,207.213394 155.401077,206.703110 154.926773,206.192825 
	C154.926773,206.192825 154.984299,206.083862 154.972549,205.721298 
	C154.940872,205.156296 154.920944,204.953873 154.901031,204.751434 
	C155.068588,204.734238 155.236160,204.717026 155.946045,204.752228 
	C156.691711,204.814316 156.895081,204.823959 157.098450,204.833618 
z"/>
<path fill="#143E6F" opacity="1.000000" stroke="none" 
	d="
M110.340408,208.715057 
	C110.726501,209.465515 110.882675,210.478058 111.038857,211.490616 
	C110.795776,211.519516 110.552696,211.548431 110.309624,211.577332 
	C110.243240,210.710602 110.176865,209.843872 110.340408,208.715057 
z"/>
<path fill="#27466F" opacity="1.000000" stroke="none" 
	d="
M145.986694,205.635300 
	C145.521484,205.988861 145.101440,205.993881 144.366562,205.991608 
	C144.351120,205.366653 144.650528,204.748978 144.949921,204.131317 
	C145.310577,204.516464 145.671219,204.901611 145.986694,205.635300 
z"/>
<path fill="#374E6E" opacity="1.000000" stroke="none" 
	d="
M75.145264,210.323883 
	C75.200584,209.991913 75.400200,209.984863 75.899612,209.961151 
	C76.882828,209.956451 77.566254,209.968414 78.591667,209.998749 
	C77.718956,210.227661 76.504257,210.438232 75.145264,210.323883 
z"/>
<path fill="#BC9E67" opacity="1.000000" stroke="none" 
	d="
M154.954010,206.391953 
	C155.401077,206.703110 155.875381,207.213394 155.979218,207.803848 
	C155.399582,207.453033 155.190399,207.022064 154.954010,206.391953 
z"/>
<path fill="#2E496F" opacity="1.000000" stroke="none" 
	d="
M118.021835,212.336914 
	C118.777306,211.702911 119.591660,211.428467 120.766922,211.360596 
	C121.169159,211.763885 121.210480,211.960602 121.251808,212.157333 
	C120.194778,212.337051 119.137756,212.516769 118.021835,212.336914 
z"/>
<path fill="#887D6B" opacity="1.000000" stroke="none" 
	d="
M142.249237,210.924591 
	C142.136215,210.067154 142.332047,209.200027 142.801743,208.132263 
	C143.075607,207.931610 143.049576,207.985504 143.011307,208.325287 
	C143.038284,209.383469 143.103531,210.101883 143.168793,210.820282 
	C142.965210,210.851837 142.761642,210.883377 142.249237,210.924591 
z"/>
<path fill="#20446E" opacity="1.000000" stroke="none" 
	d="
M143.410172,210.722397 
	C143.103531,210.101883 143.038284,209.383469 142.991028,208.303864 
	C143.148148,207.838806 143.287277,207.734924 143.678940,207.564453 
	C143.949524,207.773224 143.967590,208.048615 144.040741,208.734467 
	C143.947739,209.638138 143.799652,210.131317 143.410172,210.722397 
z"/>
<path fill="#99886A" opacity="1.000000" stroke="none" 
	d="
M121.487701,212.253784 
	C121.210480,211.960602 121.169159,211.763885 121.088051,211.268158 
	C121.320206,210.968277 121.592148,210.967377 122.271698,211.024887 
	C122.811417,211.533173 122.943512,211.983017 123.105347,212.675995 
	C122.664597,212.729492 122.194099,212.539871 121.487701,212.253784 
z"/>
<path fill="#374E6E" opacity="1.000000" stroke="none" 
	d="
M62.696693,202.105881 
	C62.777679,202.904282 62.520168,203.835510 61.906322,204.896332 
	C61.819393,204.096848 62.088791,203.167786 62.696693,202.105881 
z"/>
<path fill="#A58F69" opacity="1.000000" stroke="none" 
	d="
M157.182281,204.601868 
	C156.895081,204.823959 156.691711,204.814316 156.195999,204.715332 
	C156.269379,204.152710 156.635101,203.679398 157.000824,203.206085 
	C157.089264,203.594086 157.177689,203.982101 157.182281,204.601868 
z"/>
<path fill="#48576E" opacity="1.000000" stroke="none" 
	d="
M147.720184,203.821259 
	C147.838074,204.527344 147.757095,205.029144 147.676132,205.530930 
	C147.460480,205.482834 147.244843,205.434723 147.029190,205.386612 
	C147.193237,204.796738 147.357269,204.206848 147.720184,203.821259 
z"/>
<path fill="#525C6D" opacity="1.000000" stroke="none" 
	d="
M64.124557,206.295074 
	C64.200333,205.866364 64.614960,205.938919 64.821747,205.978577 
	C64.847031,206.664612 64.665543,207.311005 64.248688,208.215302 
	C64.025146,207.890060 64.036964,207.306915 64.124557,206.295074 
z"/>
<path fill="#C6A467" opacity="1.000000" stroke="none" 
	d="
M115.020416,207.410004 
	C114.893898,207.678635 114.710487,207.729568 114.253876,207.863464 
	C114.099693,207.521881 114.218735,207.097305 114.337784,206.672745 
	C114.546364,206.845917 114.754944,207.019089 115.020416,207.410004 
z"/>
<path fill="#76716C" opacity="1.000000" stroke="none" 
	d="
M116.206573,211.123016 
	C116.424652,210.756805 116.814339,210.392517 117.476273,209.970963 
	C117.799927,210.101471 117.851334,210.289246 117.608063,210.750015 
	C117.110428,211.021500 116.907486,211.020004 116.704536,211.018509 
	C116.704536,211.018509 116.378197,211.124939 116.206573,211.123016 
z"/>
<path fill="#2E496F" opacity="1.000000" stroke="none" 
	d="
M116.838554,211.304565 
	C116.907486,211.020004 117.110428,211.021500 117.617020,211.041901 
	C117.920670,211.060776 118.036842,211.540054 118.031235,211.786560 
	C117.674606,211.885590 117.323586,211.738113 116.838554,211.304565 
z"/>
<path fill="#76716C" opacity="1.000000" stroke="none" 
	d="
M117.849991,208.736542 
	C117.569534,209.019608 117.389252,208.962814 116.956604,208.770538 
	C116.988152,208.410828 117.272049,208.186600 117.799454,207.828232 
	C118.012024,207.928268 117.981094,208.162460 117.849991,208.736542 
z"/>
<path fill="#535D6E" opacity="1.000000" stroke="none" 
	d="
M154.756897,204.693039 
	C154.920944,204.953873 154.940872,205.156296 154.990479,205.662354 
	C154.718262,205.840683 154.416351,205.715378 153.993530,205.367126 
	C153.872620,205.144196 154.095474,204.871979 154.201172,204.725220 
	C154.306870,204.578476 154.612762,204.634644 154.756897,204.693039 
z"/>
<path fill="#B89B68" opacity="1.000000" stroke="none" 
	d="
M86.990273,205.987000 
	C87.091621,205.949844 87.204407,205.926315 87.173264,205.963043 
	C87.029350,206.023285 87.001701,206.000626 86.990273,205.987000 
z"/>
<path fill="#525C6D" opacity="1.000000" stroke="none" 
	d="
M66.109436,205.791656 
	C65.883591,205.722504 65.905540,205.350510 65.955826,205.171051 
	C66.234283,205.178619 66.462463,205.365646 66.690636,205.552689 
	C66.572182,205.655396 66.453735,205.758102 66.109436,205.791656 
z"/>
<path fill="#F8F2E8" opacity="1.000000" stroke="none" 
	d="
M33.479652,188.497360 
	C29.879297,186.667282 30.738010,184.707520 33.583267,183.215424 
	C37.849361,180.978256 41.805088,182.341995 46.074673,184.825500 
	C43.091385,188.341049 40.151554,186.133820 37.304840,185.790680 
	C36.293571,185.668793 35.158932,186.570465 33.972908,187.559174 
	C33.736687,188.241425 33.608170,188.369385 33.479652,188.497360 
z"/>
<path fill="#F8F2E8" opacity="1.000000" stroke="none" 
	d="
M34.070267,187.934692 
	C34.441319,188.303757 34.607311,188.851562 34.773308,189.399384 
	C34.416557,189.261887 34.059803,189.124390 33.591351,188.742126 
	C33.608170,188.369385 33.736687,188.241425 34.070267,187.934692 
z"/>
<path fill="#20446E" opacity="1.000000" stroke="none" 
	d="
M107.031723,124.149483 
	C107.539078,123.099014 107.900490,122.363869 108.285141,121.581459 
	C110.745804,125.297600 113.148735,128.926559 115.418259,132.354034 
	C113.100899,135.672974 110.752449,139.036438 108.633820,142.070755 
	C106.422646,138.709702 104.092659,135.168045 101.797806,131.679794 
	C103.477913,129.297318 105.181839,126.881058 107.031723,124.149483 
z"/>
<path fill="#535D6E" opacity="1.000000" stroke="none" 
	d="
M124.138725,209.126343 
	C124.872498,208.907059 125.578690,209.027618 127.357201,209.331207 
	C125.759544,209.764511 125.229897,209.908173 124.405090,210.099915 
	C124.110329,209.920731 124.110741,209.693436 124.138725,209.126343 
z"/>
</svg>